<?xml version="1.0" encoding="utf-8"?>
<!-- Generator: Adobe Illustrator 22.1.0, SVG Export Plug-In . SVG Version: 6.00 Build 0)  -->
<svg version="1.1" id="Layer_1" xmlns="http://www.w3.org/2000/svg" xmlns:xlink="http://www.w3.org/1999/xlink" x="0px" y="0px"
	 viewBox="0 0 24 24" style="enable-background:new 0 0 24 24;" xml:space="preserve">
<g>
	<g transform="translate(0.000000,511.000000) scale(0.100000,-0.100000)">
		<path d="M0.6,4982.5c3.7-16.5,16.6-31,36.8-41.6c2.5-1.3,4.9-2.5,5.3-2.6c0.4-0.2,0-2.7-1.6-9.2c-2-8.4-2.1-9.1-1.3-10.6
			c0.9-1.8,2.3-2.7,4.2-2.7c2.1,0,41.7,16.4,42.8,17.7c0.5,0.6,1,1.9,1,2.9c0,1.6-1.8,3.9-14.5,19c-9.4,11.1-14.9,17.3-15.8,17.5
			c-1.7,0.4-3.7-0.1-5-1.3c-0.5-0.5-1.5-3.2-2.2-5.9l-1.2-4.9l-2.5,1.4c-16.2,9.4-24.4,20.1-23.5,30.7c0.5,5.6,3.3,10.5,9.2,16.4
			c5.3,5.2,9.9,8.5,17.3,12.3c16.2,8.3,36.3,12.9,60.5,13.9c7,0.3,9,0.6,10.9,1.4c4.5,2.1,7,7.5,5.9,12.6c-0.5,2.3-1.1,3.4-3.1,5.5
			c-3.9,3.9-6.8,4.3-22.1,3.2c-29.4-2.2-54.4-9.8-73.4-22.3c-4.4-3-7.9-5.9-12.6-10.6c-7.5-7.6-11.1-13.1-13.8-21.2
			c-1.4-4.3-1.7-6.1-1.8-11.8C-0.1,4988,0.1,4984.6,0.6,4982.5z"/>
		<path d="M113.5,4928.7c1-2.6,3.3-5,6.1-6.2c3.2-1.5,6.2-1.6,18.5-0.7c59.4,4.2,102,32.3,102,67.1c-0.1,20-13.1,37.4-37.8,50.5
			l-5.6,2.9l2.1,8.6c1.3,5.2,2,9.1,1.8,9.9c-0.5,2-2.4,3.5-4.3,3.5c-2,0-40.9-15.8-42.5-17.3c-1.4-1.3-1.9-3.2-1.3-4.8
			c0.6-1.8,28-34,29.4-34.7c3.9-1.8,6.1,0,7.6,6.4c1.4,5.7,1.1,5.7,7.9,1.4c6.6-4,14.8-12.3,17.3-17.3c4.5-9.3,2-19-7.3-28
			c-15.4-14.9-43.2-24.1-77.6-25.7c-8.6-0.4-10.8-0.9-13.3-3.3C113.3,4938.2,112,4932.4,113.5,4928.7z"/>
	</g>
</g>
</svg>
