<?xml version="1.0" encoding="iso-8859-1"?>
<!-- Generator: Adobe Illustrator 19.0.0, SVG Export Plug-In . SVG Version: 6.00 Build 0)  -->
<svg xmlns="http://www.w3.org/2000/svg" xmlns:xlink="http://www.w3.org/1999/xlink" version="1.1" id="Capa_1" x="0px" y="0px" viewBox="0 0 339.452 339.452" style="enable-background:new 0 0 339.452 339.452;" xml:space="preserve" width="512px" height="512px">
<g>
	<g>
		<path d="M325.452,280.557h-4.72c0.048-0.666,0.048-1.334,0-2v-252c0-7.732-6.268-14-14-14h-136.8c-7.732,0-14,6.268-14,14v104    c-13.025,3.16-24.423,11.024-32,22.08c-9.292,13.387-12.164,30.208-7.84,45.92c5.76,22.08,6.48,51.36-5.44,63.52    c-6.863,6.083-16.517,7.897-25.12,4.72c-9.254-1.465-17.155-7.474-21.04-16c-12.72-29.36,19.04-84.88,19.12-85.12    c1.92-2.88,46.16-71.6,0.96-112c-1.84-1.92-45.44-48-79.12-43.52c-3.424,0.442-5.842,3.576-5.4,7c0.442,3.424,3.576,5.842,7,5.4    c8.094-0.486,16.162,1.316,23.28,5.2l-8.96,10.8c-4.856,6.017-3.914,14.831,2.103,19.687c0.098,0.079,0.197,0.157,0.297,0.233    l30.08,24c2.473,1.982,5.551,3.055,8.72,3.04h1.2c3.688-0.416,7.058-2.288,9.36-5.2l8.72-10.96c27.04,34.56-8,89.6-8.88,90.48    c-1.44,2.48-35.04,61.28-20,96c5.56,12.056,16.739,20.568,29.84,22.72c4.035,0.978,8.169,1.488,12.32,1.52    c8.97,0.27,17.654-3.175,24-9.52c16-16.72,14.72-50.8,8.48-74.96c-6.637-22.24,5.95-45.662,28.16-52.4v135.36    c-0.048,0.666-0.048,1.334,0,2h-4c-7.73-0.177-14.14,5.946-14.316,13.676c-0.003,0.108-0.004,0.216-0.004,0.324v21.04    c-0.002,7.732,6.264,14.002,13.996,14.004c0.108,0,0.216-0.001,0.324-0.004h173.68c7.732,0,14-6.268,14-14v-21.04    C339.452,286.826,333.184,280.557,325.452,280.557z M72.652,61.917l-8.88,10.96c-0.339,0.412-0.829,0.671-1.36,0.72    c-0.514,0.067-1.034-0.078-1.44-0.4l-30.08-24c-0.762-0.778-0.762-2.022,0-2.8l8.88-11.04c0.339-0.412,0.829-0.671,1.36-0.72    c0.514-0.067,1.034,0.078,1.44,0.4l30.08,24c0.419,0.333,0.68,0.826,0.72,1.36C73.367,60.985,73.104,61.541,72.652,61.917z     M167.772,26.557c0-1.105,0.895-2,2-2h137.12c1.105,0,2,0.895,2,2v252c0,1.105-0.895,2-2,2h-136.96    c-1.101,0.088-2.065-0.733-2.154-1.834c-0.004-0.055-0.007-0.111-0.006-0.166V26.557z M327.772,315.597c0,1.105-0.895,2-2,2h-174    c-1.105,0-2-0.895-2-2v-21.04c0-1.105,0.895-2,2-2h173.68c1.09-0.177,2.118,0.564,2.294,1.654c0.019,0.114,0.027,0.23,0.026,0.346    V315.597z" fill="#ff9284"/>
	</g>
</g>
<g>
	<g>
		<path d="M279.772,43.597h-82.88c-7.732,0-14,6.268-14,14v82.96c0,7.732,6.268,14,14,14h82.88c7.732,0,14-6.268,14-14v-82.96    C293.772,49.866,287.504,43.597,279.772,43.597z M281.772,140.637c-0.043,1.073-0.926,1.921-2,1.92h-82.88c-1.105,0-2-0.895-2-2    v-82.96c0-1.105,0.895-2,2-2h82.88c1.105,0,2,0.895,2,2V140.637z" fill="#ff9284"/>
	</g>
</g>
<g>
	<g>
		<path d="M270.412,177.198h-64c-3.314,0-6,2.686-6,6s2.686,6,6,6h64c3.314,0,6-2.686,6-6S273.726,177.198,270.412,177.198z" fill="#ff9284"/>
	</g>
</g>
<g>
</g>
<g>
</g>
<g>
</g>
<g>
</g>
<g>
</g>
<g>
</g>
<g>
</g>
<g>
</g>
<g>
</g>
<g>
</g>
<g>
</g>
<g>
</g>
<g>
</g>
<g>
</g>
<g>
</g>
</svg>
