<svg width="37" height="37" viewBox="0 0 37 37" fill="none" xmlns="http://www.w3.org/2000/svg">
<path d="M36.8827 25.3435C36.8827 25.3435 36.8827 29.2094 36.4727 30.869C36.0627 32.5482 35.2817 33.7001 34.4421 34.5592C33.583 35.4183 32.4505 36.1993 30.7324 36.6094C28.9946 37.0194 25.2459 36.9999 25.2459 36.9999H11.6175C11.6175 36.9999 7.77106 36.9999 6.11144 36.5898C4.45182 36.1603 3.28033 35.3988 2.42124 34.5397C1.56214 33.6806 0.781144 32.5482 0.390646 30.8105C-0.0193773 29.0727 0.000147636 25.324 0.000147636 25.324V11.6565C0.000147636 11.6565 0.000148803 7.79059 0.410172 6.13097C0.820195 4.45183 1.60119 3.29986 2.44076 2.44076C3.29986 1.58167 4.4323 0.800669 6.15049 0.390646C7.88821 -0.0193773 11.637 0.000147636 11.637 0.000147636H25.2654C25.2654 0.000147636 29.1118 0.000148803 30.7714 0.410172C32.431 0.83972 33.6025 1.60119 34.4616 2.46029C35.3207 3.31938 36.1017 4.45183 36.4922 6.18955C36.8827 7.92726 36.8827 11.676 36.8827 11.676V25.3435Z" fill="url(#paint0_linear)"/>
<path d="M31.103 11.3049C31.8644 21.8288 24.8745 26.8272 18.607 27.3739C12.7886 27.8816 7.32163 24.4452 6.85304 19.1149C6.46254 14.7218 9.27412 12.8279 11.4804 12.6521C13.7453 12.4569 15.6392 13.9603 15.815 15.7956C15.9712 17.5529 14.8387 18.3729 14.0382 18.4315C13.4134 18.4901 12.6324 18.1191 12.5543 17.3381C12.4957 16.6547 12.7691 16.5766 12.691 15.8542C12.5738 14.5656 11.4219 14.4289 10.7971 14.4875C10.0356 14.546 8.64932 15.4247 8.82505 17.5724C9.0203 19.7397 11.168 21.4579 13.9796 21.204C17.0255 20.9307 19.1537 18.6463 19.3099 15.4247C19.3099 15.2489 19.349 15.0927 19.4271 14.9365C19.4661 14.878 19.4857 14.8194 19.5442 14.7608C19.6223 14.6437 19.7004 14.546 19.798 14.4484C19.8761 14.3703 19.9738 14.2727 20.0714 14.1751C21.3991 12.9645 26.2022 10.0748 30.7125 10.973C30.7515 10.973 30.7906 10.9925 30.8101 11.012C30.9858 11.012 31.0834 11.1487 31.103 11.3049Z" fill="white"/>
<defs>
<linearGradient id="paint0_linear" x1="35.8445" y1="1.14899" x2="-0.133669" y2="36.7678" gradientUnits="userSpaceOnUse">
<stop stop-color="#7F7F7F"/>
<stop offset="0.900553" stop-color="#414141"/>
</linearGradient>
</defs>
</svg>
