<?xml version="1.0" encoding="utf-8"?>
<!-- Generator: Adobe Illustrator 22.1.0, SVG Export Plug-In . SVG Version: 6.00 Build 0)  -->
<svg version="1.1" id="Layer_1" xmlns="http://www.w3.org/2000/svg" xmlns:xlink="http://www.w3.org/1999/xlink" x="0px" y="0px"
	 viewBox="0 0 38 48" style="enable-background:new 0 0 38 48;" xml:space="preserve">
<style type="text/css">
	.st0{fill:none;stroke:#000000;stroke-width:0.5;stroke-miterlimit:10;}
</style>
<path d="M34,6.4h-4.7V4.1c0-1.3-0.6-2.5-1.6-3.3s-2.3-1-3.6-0.6l-21,6.2C3,6.5,2.9,6.5,2.8,6.6C1.1,7.1,0,8.6,0,10.4V44
	c0,2.2,1.8,4,4,4h30c2.2,0,4-1.8,4-4V10.4C38,8.2,36.3,6.4,34,6.4z M24.7,2.1C25.4,1.9,26,2,26.6,2.4c0.5,0.4,0.8,1,0.8,1.7v2.3
	H10.2L24.7,2.1z M36,44c0,1.1-0.9,2-2,2H4c-1.1,0-2-0.9-2-2V10.4c0-1.1,0.9-2,2-2h30c1.1,0,2,0.9,2,2V44z"/>
<g>
	<path d="M23.5,35.6c0.7,0,1.7-0.6,3-1.8c0.6-0.6,1.3-1.3,2-2.2c0.7-0.9,2.8-3.4,3-3.6c0.5-0.6,0.4-1.3-0.2-1.8
		c-0.6-0.5-1.5-0.4-2.1,0.3c-1.2,1.4-2.6,2.9-4.3,4.7c-0.6,0.6-1.4-0.2-0.9-0.8c0.2-0.3,0.3-0.6,0.3-0.9c0-0.8-0.6-1.4-1.4-1.4h-7.3
		c-1,0-2.2,0.6-3.1,1.4c-0.9,1-1.7,1.8-2.2,2.5l2.3,3.8H23.5z M28.3,25.6c1.1-1.2,2.7-1.4,3.8-0.5c1.1,0.9,1.4,2.4,0.4,3.6
		c-0.2,0.2-2.2,2.8-3,3.6c-0.8,0.9-1.5,1.6-2.1,2.3c-1.5,1.4-2.7,2.2-3.9,2.2c-4.6,0-8.1,0-10.4,0c-0.8,0-3.6-6-3.4-6.2
		c0.5-0.6,1.2-1.4,2-2.2c1-1.1,2.6-1.8,4-1.8h5.3c0.9,0,0.9,0,2,0c1.2,0,2.3,0.9,2.6,2C26.5,27.6,27.5,26.5,28.3,25.6z"/>
	<path d="M10.3,38.8l2.5-1.5l-4-6.8L6.3,32L10.3,38.8z M5.3,31.1l3.2-1.9C9,29,9.5,29.1,9.7,29.5l4.4,7.6c0.2,0.4,0.1,0.9-0.3,1.1
		l-3.2,1.9c-0.4,0.2-0.9,0.1-1.1-0.3L5,32.2C4.8,31.8,4.9,31.3,5.3,31.1z"/>
	<path d="M18.5,27.9c-0.3,0-0.6-0.3-0.6-0.6c0-0.3,0.3-0.6,0.6-0.6h4.3c1.5,0,2.7,1.2,2.7,2.7c0,1.5-1.2,2.7-2.7,2.7h-4.2
		c-0.3,0-0.6-0.3-0.6-0.6c0-0.3,0.3-0.6,0.6-0.6h4.2c0.8,0,1.5-0.7,1.5-1.5s-0.7-1.5-1.5-1.5H18.5z"/>
	<path d="M20.1,26.9c0,0.3-0.3,0.6-0.6,0.6c-0.3,0-0.6-0.3-0.6-0.6c0-1.6,0-1.6,0-3.8c0-1,0.4-1.8,1-2.2c0.6-0.4,0.1-0.2,2.7-1.7
		c0.3-0.2,0.7-0.1,0.9,0.2c0.2,0.3,0.1,0.7-0.2,0.9c-2.6,1.5-2.1,1.2-2.6,1.6c-0.3,0.2-0.5,0.6-0.5,1.2V26.9z"/>
	<path d="M18.9,26c0,0.3,0.3,0.6,0.6,0.6c0.3,0,0.6-0.3,0.6-0.6l0-1.3c-0.1-0.7-0.4-1.4-0.9-1.9c-0.5-0.5-0.9-0.8-1.4-0.8L17.2,22
		c-0.3-0.1-0.7,0.1-0.7,0.5c-0.1,0.3,0.1,0.7,0.5,0.7l0.7,0.1c0.1,0,0.2,0,0.2,0.1c0.1,0.1,0.3,0.2,0.5,0.4c0.3,0.3,0.5,0.7,0.6,1.1
		V26z"/>
</g>
<g transform="translate(-82.393755,-105.33571)">
	<g transform="matrix(0.26458333,0,0,0.26458333,-33.403463,56.772624)">
		<path d="M562.4,231.8c-0.3-0.4-0.7-0.6-1.2-0.5l-26.1,1.8c-0.3,0-0.6,0-0.9,0.2c-0.5,0.3-0.6,0.9-0.5,1.4l1.3,15.4
			c0,0.6,0.3,1.1,0.9,1.2l14.1,6.5c0.2,0.1,0.5,0.2,0.7,0.2l0,0c0,0,0,0,0,0c0,0,0.1,0,0.1,0c0,0,0.1,0,0.1,0c0,0,0,0,0,0
			c0.1,0,0.3-0.1,0.4-0.2c0,0,0,0,0,0c0,0,0,0,0.1,0c0,0,0,0,0.1-0.1l0,0c0.2-0.2,0.3-0.4,0.4-0.6l10.5-24
			C562.7,232.7,562.7,232.2,562.4,231.8z M537.5,249.4c-0.3-4.8-0.7-9.7-1.1-13.9l23.2-1.6c-2.9,6.4-6.7,15-9.5,21.3
			C545.9,253.2,541.7,251.3,537.5,249.4z M532.1,237.5c-0.5-0.6-1.4-0.6-1.9,0c0,0,0,0,0,0c0,0,0,0.1-0.1,0.1c0,0,0,0.1,0,0.1
			c0,0,0,0,0,0c0,0.1-0.1,0.2-0.1,0.3l-7.1,20.5c-0.4,0.8,0.3,1.8,1.2,1.7l21.7,0.3c0,0,0,0,0.1,0c0,0,0,0,0,0
			c1.3-0.1,1.6-1.9,0.4-2.3l-12.8-5.8l-1.2-14C532.3,237.9,532.2,237.7,532.1,237.5L532.1,237.5z M525.6,257.7l4.8-13.7l0.7,9
			c0,0.5,0.3,0.9,0.9,1.2c1,0.5,8.1,3.7,8.1,3.7L525.6,257.7z"/>
	</g>
</g>
<g transform="translate(-82.393755,-105.33571)">
	<g transform="matrix(0.26458333,0,0,0.26458333,-33.403463,56.772624)">
		<path d="M453.3,257.6c-0.1,0.5,0.1,1,0.5,1.3l20.3,19.7c0.2,0.3,0.5,0.5,0.8,0.5c0.6,0.1,1.2-0.1,1.5-0.6l11.4-12.1
			c0.5-0.4,0.6-1,0.4-1.6l-5-16c0-0.3-0.2-0.5-0.3-0.7l0,0c0,0,0,0,0,0c0,0-0.1-0.1-0.1-0.1c0,0,0,0-0.1-0.1c0,0,0,0,0,0
			c-0.1-0.1-0.3-0.2-0.4-0.2c0,0,0,0,0,0c0,0-0.1,0-0.1,0c0,0-0.1,0-0.1,0l0,0c-0.3,0-0.5,0-0.8,0.1l-26.9,8.8
			C453.8,256.7,453.4,257.1,453.3,257.6z M485.4,265c-3.6,3.7-7.3,7.6-10.4,10.9l-18-17.6c7.2-2.3,16.9-5.4,24-7.8
			C482.4,255.5,483.9,260.2,485.4,265z M479.7,278c-0.2,0.8,0.5,1.6,1.4,1.5c0,0,0,0,0,0c0,0,0.1,0,0.1,0c0,0,0.1,0,0.1,0
			c0,0,0,0,0,0c0.1,0,0.2-0.1,0.3-0.1l21.6-9.1c1-0.3,1.3-1.5,0.5-2.2l-15.5-17.7c0,0,0,0-0.1-0.1c0,0,0,0,0,0c-1-1-2.7,0.1-2.1,1.4
			l4.5,14.5l-10.4,11C479.9,277.5,479.8,277.7,479.7,278L479.7,278z M500.7,268.6l-14.5,6.1l6.7-7c0.4-0.4,0.5-1,0.3-1.6
			c-0.4-1.1-2.9-9.2-2.9-9.2L500.7,268.6z"/>
	</g>
</g>
<line class="st0" x1="26.4" y1="17.4" x2="32.3" y2="13.3"/>
<line class="st0" x1="12.6" y1="21.6" x2="5.1" y2="19.8"/>
<line class="st0" x1="16.7" y1="22.5" x2="14.7" y2="22"/>
<line class="st0" x1="23.3" y1="19.6" x2="25.1" y2="18.4"/>
</svg>
