<svg width="81" height="15" viewBox="0 0 81 15" fill="none" xmlns="http://www.w3.org/2000/svg">
<rect width="81" height="15" rx="7.5" fill="url(#paint0_linear)"/>
<path d="M9.84277 8.68555C9.86556 9.09245 9.96159 9.42285 10.1309 9.67676C10.4531 10.152 11.0212 10.3896 11.835 10.3896C12.1995 10.3896 12.5316 10.3376 12.8311 10.2334C13.4105 10.0316 13.7002 9.67025 13.7002 9.14941C13.7002 8.75879 13.5781 8.48047 13.334 8.31445C13.0866 8.15169 12.6992 8.01009 12.1719 7.88965L11.2002 7.66992C10.5654 7.52669 10.1162 7.36882 9.85254 7.19629C9.39681 6.89681 9.16895 6.44922 9.16895 5.85352C9.16895 5.20898 9.39193 4.68001 9.83789 4.2666C10.2839 3.85319 10.9154 3.64648 11.7324 3.64648C12.4844 3.64648 13.1224 3.82878 13.6465 4.19336C14.1738 4.55469 14.4375 5.13411 14.4375 5.93164H13.5244C13.4756 5.54753 13.3714 5.25293 13.2119 5.04785C12.9157 4.6735 12.4128 4.48633 11.7031 4.48633C11.1302 4.48633 10.7184 4.60677 10.4678 4.84766C10.2171 5.08854 10.0918 5.36849 10.0918 5.6875C10.0918 6.03906 10.2383 6.29622 10.5312 6.45898C10.7233 6.56315 11.1579 6.69336 11.835 6.84961L12.8408 7.0791C13.3258 7.18978 13.7002 7.34115 13.9639 7.5332C14.4196 7.86849 14.6475 8.35514 14.6475 8.99316C14.6475 9.78743 14.3577 10.3555 13.7783 10.6973C13.2021 11.0391 12.5316 11.21 11.7666 11.21C10.8747 11.21 10.1764 10.9821 9.67188 10.5264C9.16732 10.0739 8.91992 9.46029 8.92969 8.68555H9.84277ZM17.9678 10.4092C18.3779 10.4092 18.7181 10.2383 18.9883 9.89648C19.2617 9.55143 19.3984 9.03711 19.3984 8.35352C19.3984 7.93685 19.3382 7.57878 19.2178 7.2793C18.9899 6.70312 18.5732 6.41504 17.9678 6.41504C17.359 6.41504 16.9424 6.7194 16.7178 7.32812C16.5973 7.65365 16.5371 8.06706 16.5371 8.56836C16.5371 8.97201 16.5973 9.31543 16.7178 9.59863C16.9456 10.139 17.3623 10.4092 17.9678 10.4092ZM15.6924 5.79492H16.5469V6.48828C16.7227 6.25065 16.9147 6.06673 17.123 5.93652C17.4193 5.74121 17.7676 5.64355 18.168 5.64355C18.7604 5.64355 19.2633 5.87142 19.6768 6.32715C20.0902 6.77962 20.2969 7.42741 20.2969 8.27051C20.2969 9.40983 19.999 10.2236 19.4033 10.7119C19.0257 11.0212 18.5863 11.1758 18.085 11.1758C17.6911 11.1758 17.3607 11.0895 17.0938 10.917C16.9375 10.8193 16.7633 10.6517 16.5713 10.4141V13.085H15.6924V5.79492ZM23.5049 5.65332C23.876 5.65332 24.2357 5.74121 24.584 5.91699C24.9323 6.08952 25.1976 6.31413 25.3799 6.59082C25.5557 6.85449 25.6729 7.16211 25.7314 7.51367C25.7835 7.75456 25.8096 8.13867 25.8096 8.66602H21.9766C21.9928 9.19661 22.1182 9.62305 22.3525 9.94531C22.5869 10.2643 22.9499 10.4238 23.4414 10.4238C23.9004 10.4238 24.2666 10.2725 24.54 9.96973C24.6963 9.79395 24.807 9.59049 24.8721 9.35938H25.7363C25.7135 9.55143 25.637 9.76628 25.5068 10.0039C25.3799 10.2383 25.2367 10.4303 25.0771 10.5801C24.8102 10.8405 24.4798 11.0163 24.0859 11.1074C23.8743 11.1595 23.6351 11.1855 23.3682 11.1855C22.7171 11.1855 22.1654 10.9495 21.7129 10.4775C21.2604 10.0023 21.0342 9.33822 21.0342 8.48535C21.0342 7.64551 21.262 6.96354 21.7178 6.43945C22.1735 5.91536 22.7692 5.65332 23.5049 5.65332ZM24.9062 7.96777C24.8704 7.58691 24.7874 7.28255 24.6572 7.05469C24.4163 6.63151 24.0143 6.41992 23.4512 6.41992C23.0475 6.41992 22.709 6.56641 22.4355 6.85938C22.1621 7.14909 22.0173 7.51855 22.001 7.96777H24.9062ZM28.9102 5.61914C29.4993 5.61914 29.9779 5.76237 30.3457 6.04883C30.7168 6.33529 30.9398 6.82845 31.0146 7.52832H30.1602C30.1081 7.20605 29.9893 6.93913 29.8037 6.72754C29.6182 6.5127 29.3203 6.40527 28.9102 6.40527C28.3503 6.40527 27.9499 6.67871 27.709 7.22559C27.5527 7.5804 27.4746 8.01823 27.4746 8.53906C27.4746 9.06315 27.5853 9.50423 27.8066 9.8623C28.028 10.2204 28.3763 10.3994 28.8516 10.3994C29.2161 10.3994 29.5042 10.2887 29.7158 10.0674C29.9307 9.84277 30.0788 9.53678 30.1602 9.14941H31.0146C30.917 9.84277 30.6729 10.3506 30.2822 10.6729C29.8916 10.9919 29.3919 11.1514 28.7832 11.1514C28.0996 11.1514 27.5544 10.9023 27.1475 10.4043C26.7406 9.90299 26.5371 9.27799 26.5371 8.5293C26.5371 7.61133 26.7601 6.89681 27.2061 6.38574C27.652 5.87467 28.2201 5.61914 28.9102 5.61914ZM31.8936 5.79492H32.7871V11H31.8936V5.79492ZM31.8936 3.82715H32.7871V4.82324H31.8936V3.82715ZM34.7939 9.6084C34.7939 9.8623 34.8867 10.0625 35.0723 10.209C35.2578 10.3555 35.4775 10.4287 35.7314 10.4287C36.0407 10.4287 36.3402 10.3571 36.6299 10.2139C37.1182 9.97624 37.3623 9.58724 37.3623 9.04688V8.33887C37.2549 8.40723 37.1165 8.46419 36.9473 8.50977C36.778 8.55534 36.612 8.58789 36.4492 8.60742L35.917 8.67578C35.598 8.7181 35.3587 8.78483 35.1992 8.87598C34.929 9.02897 34.7939 9.27311 34.7939 9.6084ZM36.9229 7.83105C37.1247 7.80501 37.2598 7.72038 37.3281 7.57715C37.3672 7.49902 37.3867 7.38672 37.3867 7.24023C37.3867 6.94076 37.2793 6.72428 37.0645 6.59082C36.8529 6.4541 36.5485 6.38574 36.1514 6.38574C35.6924 6.38574 35.3669 6.50944 35.1748 6.75684C35.0674 6.89355 34.9974 7.09701 34.9648 7.36719H34.1445C34.1608 6.72266 34.3691 6.27507 34.7695 6.02441C35.1732 5.77051 35.6403 5.64355 36.1709 5.64355C36.7861 5.64355 37.2858 5.76074 37.6699 5.99512C38.0508 6.22949 38.2412 6.59408 38.2412 7.08887V10.1016C38.2412 10.1927 38.2591 10.266 38.2949 10.3213C38.334 10.3766 38.4137 10.4043 38.5342 10.4043C38.5732 10.4043 38.6172 10.4027 38.666 10.3994C38.7148 10.3929 38.7669 10.3848 38.8223 10.375V11.0244C38.6855 11.0635 38.5814 11.0879 38.5098 11.0977C38.4382 11.1074 38.3405 11.1123 38.2168 11.1123C37.9141 11.1123 37.6943 11.0049 37.5576 10.79C37.486 10.6761 37.4355 10.515 37.4062 10.3066C37.2272 10.541 36.9701 10.7445 36.6348 10.917C36.2995 11.0895 35.93 11.1758 35.5264 11.1758C35.0413 11.1758 34.6442 11.0293 34.335 10.7363C34.029 10.4401 33.876 10.0706 33.876 9.62793C33.876 9.1429 34.0273 8.76693 34.3301 8.5C34.6328 8.23307 35.0299 8.06868 35.5215 8.00684L36.9229 7.83105ZM39.7109 3.82715H40.5898V11H39.7109V3.82715ZM46.874 5.65332C47.2451 5.65332 47.6048 5.74121 47.9531 5.91699C48.3014 6.08952 48.5667 6.31413 48.749 6.59082C48.9248 6.85449 49.042 7.16211 49.1006 7.51367C49.1527 7.75456 49.1787 8.13867 49.1787 8.66602H45.3457C45.362 9.19661 45.4873 9.62305 45.7217 9.94531C45.9561 10.2643 46.319 10.4238 46.8105 10.4238C47.2695 10.4238 47.6357 10.2725 47.9092 9.96973C48.0654 9.79395 48.1761 9.59049 48.2412 9.35938H49.1055C49.0827 9.55143 49.0062 9.76628 48.876 10.0039C48.749 10.2383 48.6058 10.4303 48.4463 10.5801C48.1794 10.8405 47.849 11.0163 47.4551 11.1074C47.2435 11.1595 47.0042 11.1855 46.7373 11.1855C46.0863 11.1855 45.5345 10.9495 45.082 10.4775C44.6296 10.0023 44.4033 9.33822 44.4033 8.48535C44.4033 7.64551 44.6312 6.96354 45.0869 6.43945C45.5426 5.91536 46.1383 5.65332 46.874 5.65332ZM48.2754 7.96777C48.2396 7.58691 48.1566 7.28255 48.0264 7.05469C47.7855 6.63151 47.3835 6.41992 46.8203 6.41992C46.4167 6.41992 46.0781 6.56641 45.8047 6.85938C45.5312 7.14909 45.3864 7.51855 45.3701 7.96777H48.2754ZM50.8193 8.44629C50.8193 9.00618 50.9382 9.47493 51.1758 9.85254C51.4134 10.2301 51.7943 10.4189 52.3184 10.4189C52.7253 10.4189 53.0589 10.2448 53.3193 9.89648C53.583 9.54492 53.7148 9.04199 53.7148 8.3877C53.7148 7.72689 53.5798 7.23861 53.3096 6.92285C53.0394 6.60384 52.7057 6.44434 52.3086 6.44434C51.8659 6.44434 51.5062 6.61361 51.2295 6.95215C50.9561 7.29069 50.8193 7.78874 50.8193 8.44629ZM52.1426 5.67773C52.543 5.67773 52.8783 5.76237 53.1484 5.93164C53.3047 6.0293 53.4821 6.2002 53.6807 6.44434V3.80273H54.5254V11H53.7344V10.2725C53.5293 10.5947 53.2868 10.8275 53.0068 10.9707C52.7269 11.1139 52.4062 11.1855 52.0449 11.1855C51.4622 11.1855 50.9577 10.9414 50.5312 10.4531C50.1048 9.96159 49.8916 9.30892 49.8916 8.49512C49.8916 7.7334 50.0853 7.07422 50.4727 6.51758C50.8633 5.95768 51.4199 5.67773 52.1426 5.67773ZM55.8291 5.79492H56.7227V11H55.8291V5.79492ZM55.8291 3.82715H56.7227V4.82324H55.8291V3.82715ZM58.2314 4.31055H59.1201V5.77051H59.9551V6.48828H59.1201V9.90137C59.1201 10.0837 59.182 10.2057 59.3057 10.2676C59.374 10.3034 59.488 10.3213 59.6475 10.3213C59.6898 10.3213 59.7354 10.3213 59.7842 10.3213C59.833 10.318 59.89 10.3132 59.9551 10.3066V11C59.8542 11.0293 59.7484 11.0505 59.6377 11.0635C59.5303 11.0765 59.4131 11.083 59.2861 11.083C58.876 11.083 58.5977 10.9788 58.4512 10.7705C58.3047 10.5589 58.2314 10.2855 58.2314 9.9502V6.48828H57.5234V5.77051H58.2314V4.31055ZM60.8389 5.79492H61.7324V11H60.8389V5.79492ZM60.8389 3.82715H61.7324V4.82324H60.8389V3.82715ZM65.1406 10.4336C65.7233 10.4336 66.1221 10.2139 66.3369 9.77441C66.555 9.33171 66.6641 8.84017 66.6641 8.2998C66.6641 7.81152 66.5859 7.41439 66.4297 7.1084C66.1823 6.62663 65.7559 6.38574 65.1504 6.38574C64.6133 6.38574 64.2227 6.59082 63.9785 7.00098C63.7344 7.41113 63.6123 7.90592 63.6123 8.48535C63.6123 9.04199 63.7344 9.50586 63.9785 9.87695C64.2227 10.248 64.61 10.4336 65.1406 10.4336ZM65.1748 5.61914C65.8486 5.61914 66.4183 5.84375 66.8838 6.29297C67.3493 6.74219 67.582 7.40299 67.582 8.27539C67.582 9.11849 67.377 9.8151 66.9668 10.3652C66.5566 10.9154 65.9202 11.1904 65.0576 11.1904C64.3382 11.1904 63.7669 10.9479 63.3438 10.4629C62.9206 9.97461 62.709 9.32031 62.709 8.5C62.709 7.62109 62.932 6.92122 63.3779 6.40039C63.8239 5.87956 64.4229 5.61914 65.1748 5.61914ZM68.6318 5.77051H69.4668V6.5127C69.7142 6.20671 69.9762 5.98698 70.2529 5.85352C70.5296 5.72005 70.8372 5.65332 71.1758 5.65332C71.918 5.65332 72.4193 5.91211 72.6797 6.42969C72.8229 6.71289 72.8945 7.11816 72.8945 7.64551V11H72.001V7.7041C72.001 7.38509 71.9538 7.12793 71.8594 6.93262C71.7031 6.6071 71.4199 6.44434 71.0098 6.44434C70.8014 6.44434 70.6305 6.46549 70.4971 6.50781C70.2562 6.57943 70.0446 6.72266 69.8623 6.9375C69.7158 7.11003 69.6198 7.28906 69.5742 7.47461C69.5319 7.6569 69.5107 7.91895 69.5107 8.26074V11H68.6318V5.77051Z" fill="#797979"/>
<defs>
<linearGradient id="paint0_linear" x1="19.35" y1="1.50486e-06" x2="50.5508" y2="59.4448" gradientUnits="userSpaceOnUse">
<stop stop-color="#D8B166"/>
<stop offset="0.305392" stop-color="white"/>
<stop offset="0.458545" stop-color="#D8B166"/>
</linearGradient>
</defs>
</svg>
