<svg width="44" height="37" viewBox="0 0 44 37" fill="none" xmlns="http://www.w3.org/2000/svg">
<path d="M25.1994 2.20821C20.6513 -0.287348 14.9823 -0.663809 10.0878 1.05914C6.87285 2.18762 3.96022 4.28434 2.16166 7.1407C0.531229 9.71549 -0.0806971 12.9277 0.707641 15.874C1.49644 19.1449 3.8224 21.8853 6.65601 23.717C6.1231 25.2269 5.59754 26.7363 5.1023 28.257C6.89352 27.3505 8.6636 26.4051 10.4479 25.4825C12.5998 26.154 14.861 26.4758 17.1199 26.4051C16.5314 24.7233 16.3917 22.9122 16.6595 21.1575C17.0877 18.7232 18.4393 16.4949 20.3072 14.8427C23.4523 11.9729 27.9117 10.7603 32.1548 11.0526C31.3619 7.2629 28.6284 4.05739 25.1994 2.20821ZM13.0073 9.08298C12.6912 10.5678 10.6482 11.284 9.45516 10.2889C8.07327 9.33903 8.45963 6.97955 10.0855 6.50595C11.6764 5.90746 13.4864 7.48269 13.0073 9.08298ZM24.0546 8.65236C24.0684 10.3614 21.7327 11.4268 20.4184 10.2661C19.0553 9.3162 19.4417 7.00193 21.0418 6.52162C22.4728 5.97327 24.1662 7.14965 24.0546 8.65236Z" fill="#414141"/>
<path d="M42.8038 19.6271C41.7062 17.1448 39.6338 15.179 37.2296 13.9623C32.9852 11.8129 27.7035 11.8292 23.4731 14.0127C20.5307 15.5214 18.0761 18.2218 17.3769 21.5077C16.8018 23.9256 17.3193 26.5295 18.6031 28.6399C20.517 31.8066 23.9724 33.8272 27.5677 34.4771C30.1717 35.0054 32.8634 34.6956 35.3916 33.9606C36.9053 34.551 38.2622 35.5015 39.7323 36.2043C39.3565 34.9354 38.9516 33.6751 38.518 32.4246C40.1626 31.2515 41.6626 29.7954 42.5644 27.9629C43.9059 25.4112 43.9864 22.2514 42.8038 19.6271ZM28.0306 20.5754C27.6581 21.7485 25.944 22.1022 25.1204 21.2066C24.2095 20.3822 24.5634 18.6531 25.7573 18.2858C27.0852 17.728 28.6126 19.2526 28.0306 20.5754ZM36.6781 20.7381C36.2247 21.7947 34.6397 22.0378 33.8579 21.2206C33.4785 20.8805 33.3863 20.364 33.2346 19.9074C33.4372 19.0852 33.9869 18.2286 34.9227 18.1919C36.2179 18.0146 37.3541 19.5831 36.6781 20.7381Z" fill="#414141"/>
</svg>
