<svg width="81" height="60" viewBox="0 0 81 60" fill="none" xmlns="http://www.w3.org/2000/svg">
<g clip-path="url(#clip0)">
<path d="M3.72801 31.5863C3.6063 31.8962 7.98272 35.3085 14.1787 36.9268C18.7488 38.1101 20.5863 40.4831 23.1295 43.1207C27.7119 47.8888 32.0713 49.5545 34.6921 50.8552C40.1956 53.5674 50.6496 53.4391 54.9327 50.7787C55.778 50.2536 60.5465 47.3699 60.3542 43.9359C60.25 42.5559 59.4317 42.3613 59.1546 40.6981C58.6862 38.0214 60.0539 34.0871 63.2847 32.8223C65.5665 31.9127 68.5306 32.3754 70.1479 34.2604C71.4669 35.784 71.9916 38.4258 70.981 39.444C70.5993 39.8373 70.1229 39.8208 69.7464 39.5861C69.1989 39.2623 69.304 38.416 68.8726 37.2002C68.4648 36.0868 67.7028 35.8572 66.5316 35.5304C65.0422 35.1278 63.6622 35.4774 62.6861 36.5522C61.3738 38.0311 61.569 39.4328 61.8493 40.2739C62.5157 42.3201 63.1673 44.0239 65.3425 44.9767C68.5653 46.3722 72.5581 45.3369 74.2355 42.9283C77.1996 38.7443 74.4471 30.9262 69.0582 28.3381C64.6604 26.2277 59.6334 28.1787 56.7085 30.5811C54.3799 32.4961 53.0955 35.6757 52.6177 36.6754C51.4967 39.1679 51.8642 39.6425 51.0502 41.0463C48.5061 45.2817 42.4219 45.8198 42.1274 45.8465C38.8525 46.0844 35.9115 44.5139 30.2114 41.4162C23.0745 37.4928 23.0958 36.191 18.9694 35.1616C16.0251 34.4132 15.0543 34.86 10.5297 33.6874C6.2669 32.6256 3.82793 31.3681 3.72801 31.5863Z" fill="#414141"/>
<path d="M10.6171 28.6743C10.6133 28.2862 14.9372 27.4748 19.8672 28.3565C22.9005 28.9325 25.2012 29.9635 26.8417 30.7408C30.0773 32.2845 33.5804 34.521 35.0864 35.4599C37.129 36.7684 37.8948 37.3861 39.4751 37.8102C40.419 38.083 43.2723 38.8098 45.3774 37.229C46.6608 36.2756 47.4763 33.8557 46.9469 33.0522C46.5902 32.5318 44.219 32.4037 43.9666 33.2633C43.3528 35.4407 40.5506 35.307 39.4339 34.751C37.1896 33.685 36.9561 31.8386 37.5661 29.273C38.2305 26.4784 40.9687 25.8709 43.1562 25.7618C46.4202 25.5697 49.0979 28.0456 50.1317 30.5664C50.19 30.7254 51.6188 34.2114 49.6781 37.5254C47.4503 41.6425 42.4388 41.7095 41.7133 41.7306C38.9585 41.8017 37.0542 40.7197 33.633 38.7446C29.6534 36.4916 29.3129 35.2974 24.9351 32.9012C23.7037 32.2213 21.9141 31.2633 19.468 30.4398C14.2576 28.717 10.6318 29.0166 10.6171 28.6743Z" fill="#414141"/>
<path d="M53.119 29.9213C57.4717 28.5844 60.6125 25.0716 60.9473 21.037C61.2949 17.1505 58.8971 14.3055 58.4496 13.7635C57.8529 13.0408 54.9967 9.69952 50.8054 10.1552C50.409 10.2061 46.7961 10.654 45.0026 13.9547C44.9136 14.1271 42.8204 18.0826 45.0709 20.941C46.7246 23.0767 49.4961 23.542 50.8538 22.0739C51.8971 20.9182 52.4545 18.7758 50.6516 16.4594C50.6516 16.4594 50.1912 15.7691 50.4238 15.1952C50.4346 15.1493 50.6018 14.8503 50.8727 14.7211C51.6745 14.3792 52.8533 15.4824 53.208 15.8087C53.8719 16.4506 55.1307 17.6211 55.2297 19.6292C55.305 21.5348 54.2182 22.8737 53.6802 23.5203C52.3352 25.1367 50.617 25.6962 49.9498 25.8764L53.119 29.9213Z" fill="#414141"/>
</g>
<defs>
<clipPath id="clip0">
<rect width="71.7329" height="44.0769" fill="white" transform="translate(11.1567 0.341553) rotate(13.3738)"/>
</clipPath>
</defs>
</svg>
