<svg width="65" height="65" viewBox="0 0 65 65" fill="none" xmlns="http://www.w3.org/2000/svg">
<path d="M58.3333 37H39.6667C38.1939 37 37 38.1939 37 39.6667V58.3333C37 59.8061 38.1939 61 39.6667 61H58.3333C59.8061 61 61 59.8061 61 58.3333V39.6667C61 38.1939 59.8061 37 58.3333 37Z" stroke="#414141" stroke-width="3" stroke-linecap="round" stroke-linejoin="round"/>
<path d="M44.333 46.3333C45.4376 46.3333 46.333 45.4378 46.333 44.3333C46.333 43.2287 45.4376 42.3333 44.333 42.3333C43.2284 42.3333 42.333 43.2287 42.333 44.3333C42.333 45.4378 43.2284 46.3333 44.333 46.3333Z" fill="#FDC34F" stroke="#414141" stroke-width="3" stroke-linecap="round" stroke-linejoin="round"/>
<path d="M61.0003 52.9999L54.3337 46.3333L39.667 60.9999" fill="#FD4F4F"/>
<path d="M61.0003 52.9999L54.3337 46.3333L39.667 60.9999" stroke="#414141" stroke-width="3" stroke-linecap="round" stroke-linejoin="round"/>
<path d="M58.3333 4H39.6667C38.1939 4 37 5.19391 37 6.66667V25.3333C37 26.8061 38.1939 28 39.6667 28H58.3333C59.8061 28 61 26.8061 61 25.3333V6.66667C61 5.19391 59.8061 4 58.3333 4Z" stroke="#414141" stroke-width="3" stroke-linecap="round" stroke-linejoin="round"/>
<path d="M44.333 13.3333C45.4376 13.3333 46.333 12.4378 46.333 11.3333C46.333 10.2287 45.4376 9.33325 44.333 9.33325C43.2284 9.33325 42.333 10.2287 42.333 11.3333C42.333 12.4378 43.2284 13.3333 44.333 13.3333Z" fill="#FDC34F" stroke="#414141" stroke-width="3" stroke-linecap="round" stroke-linejoin="round"/>
<path d="M61.0003 19.9999L54.3337 13.3333L39.667 27.9999" fill="#FD4F4F"/>
<path d="M61.0003 19.9999L54.3337 13.3333L39.667 27.9999" stroke="#414141" stroke-width="3" stroke-linecap="round" stroke-linejoin="round"/>
<path d="M25.3333 4H6.66667C5.19391 4 4 5.19391 4 6.66667V25.3333C4 26.8061 5.19391 28 6.66667 28H25.3333C26.8061 28 28 26.8061 28 25.3333V6.66667C28 5.19391 26.8061 4 25.3333 4Z" stroke="#414141" stroke-width="3" stroke-linecap="round" stroke-linejoin="round"/>
<path d="M11.333 13.3333C12.4376 13.3333 13.333 12.4378 13.333 11.3333C13.333 10.2287 12.4376 9.33325 11.333 9.33325C10.2284 9.33325 9.33301 10.2287 9.33301 11.3333C9.33301 12.4378 10.2284 13.3333 11.333 13.3333Z" fill="#FDC34F" stroke="#414141" stroke-width="3" stroke-linecap="round" stroke-linejoin="round"/>
<path d="M28.0003 19.9999L21.3337 13.3333L6.66699 27.9999" fill="#FD4F4F"/>
<path d="M28.0003 19.9999L21.3337 13.3333L6.66699 27.9999" stroke="#414141" stroke-width="3" stroke-linecap="round" stroke-linejoin="round"/>
<path d="M25.3333 37H6.66667C5.19391 37 4 38.1939 4 39.6667V58.3333C4 59.8061 5.19391 61 6.66667 61H25.3333C26.8061 61 28 59.8061 28 58.3333V39.6667C28 38.1939 26.8061 37 25.3333 37Z" stroke="#414141" stroke-width="3" stroke-linecap="round" stroke-linejoin="round"/>
<path d="M11.333 46.3333C12.4376 46.3333 13.333 45.4378 13.333 44.3333C13.333 43.2287 12.4376 42.3333 11.333 42.3333C10.2284 42.3333 9.33301 43.2287 9.33301 44.3333C9.33301 45.4378 10.2284 46.3333 11.333 46.3333Z" fill="#FDC34F" stroke="#414141" stroke-width="3" stroke-linecap="round" stroke-linejoin="round"/>
<path d="M28.0003 52.9999L21.3337 46.3333L6.66699 60.9999" fill="#FD4F4F"/>
<path d="M28.0003 52.9999L21.3337 46.3333L6.66699 60.9999" stroke="#414141" stroke-width="3" stroke-linecap="round" stroke-linejoin="round"/>
</svg>
