<svg width="109" height="61" viewBox="0 0 109 61" fill="none" xmlns="http://www.w3.org/2000/svg">
<path d="M80.3333 35H61.6667C60.1939 35 59 36.1939 59 37.6667V56.3333C59 57.8061 60.1939 59 61.6667 59H80.3333C81.8061 59 83 57.8061 83 56.3333V37.6667C83 36.1939 81.8061 35 80.3333 35Z" stroke="#414141" stroke-width="3" stroke-linecap="round" stroke-linejoin="round"/>
<path d="M66.333 44.3333C67.4376 44.3333 68.333 43.4378 68.333 42.3333C68.333 41.2287 67.4376 40.3333 66.333 40.3333C65.2284 40.3333 64.333 41.2287 64.333 42.3333C64.333 43.4378 65.2284 44.3333 66.333 44.3333Z" fill="#FDC34F" stroke="#414141" stroke-width="3" stroke-linecap="round" stroke-linejoin="round"/>
<path d="M83.0003 50.9999L76.3337 44.3333L61.667 58.9999" fill="#FD4F4F"/>
<path d="M83.0003 50.9999L76.3337 44.3333L61.667 58.9999" stroke="#414141" stroke-width="3" stroke-linecap="round" stroke-linejoin="round"/>
<path d="M80.3333 2H61.6667C60.1939 2 59 3.19391 59 4.66667V23.3333C59 24.8061 60.1939 26 61.6667 26H80.3333C81.8061 26 83 24.8061 83 23.3333V4.66667C83 3.19391 81.8061 2 80.3333 2Z" stroke="#414141" stroke-width="3" stroke-linecap="round" stroke-linejoin="round"/>
<path d="M66.333 11.3333C67.4376 11.3333 68.333 10.4378 68.333 9.3333C68.333 8.2287 67.4376 7.33325 66.333 7.33325C65.2284 7.33325 64.333 8.2287 64.333 9.3333C64.333 10.4378 65.2284 11.3333 66.333 11.3333Z" fill="#FDC34F" stroke="#414141" stroke-width="3" stroke-linecap="round" stroke-linejoin="round"/>
<path d="M83.0003 17.9999L76.3337 11.3333L61.667 25.9999" fill="#FD4F4F"/>
<path d="M83.0003 17.9999L76.3337 11.3333L61.667 25.9999" stroke="#414141" stroke-width="3" stroke-linecap="round" stroke-linejoin="round"/>
<path d="M47.3333 2H28.6667C27.1939 2 26 3.19391 26 4.66667V23.3333C26 24.8061 27.1939 26 28.6667 26H47.3333C48.8061 26 50 24.8061 50 23.3333V4.66667C50 3.19391 48.8061 2 47.3333 2Z" stroke="#414141" stroke-width="3" stroke-linecap="round" stroke-linejoin="round"/>
<path d="M33.333 11.3333C34.4376 11.3333 35.333 10.4378 35.333 9.3333C35.333 8.2287 34.4376 7.33325 33.333 7.33325C32.2284 7.33325 31.333 8.2287 31.333 9.3333C31.333 10.4378 32.2284 11.3333 33.333 11.3333Z" fill="#FDC34F" stroke="#414141" stroke-width="3" stroke-linecap="round" stroke-linejoin="round"/>
<path d="M50.0003 17.9999L43.3337 11.3333L28.667 25.9999" fill="#FD4F4F"/>
<path d="M50.0003 17.9999L43.3337 11.3333L28.667 25.9999" stroke="#414141" stroke-width="3" stroke-linecap="round" stroke-linejoin="round"/>
<path d="M47.3333 35H28.6667C27.1939 35 26 36.1939 26 37.6667V56.3333C26 57.8061 27.1939 59 28.6667 59H47.3333C48.8061 59 50 57.8061 50 56.3333V37.6667C50 36.1939 48.8061 35 47.3333 35Z" stroke="#414141" stroke-width="3" stroke-linecap="round" stroke-linejoin="round"/>
<path d="M33.333 44.3333C34.4376 44.3333 35.333 43.4378 35.333 42.3333C35.333 41.2287 34.4376 40.3333 33.333 40.3333C32.2284 40.3333 31.333 41.2287 31.333 42.3333C31.333 43.4378 32.2284 44.3333 33.333 44.3333Z" fill="#FDC34F" stroke="#414141" stroke-width="3" stroke-linecap="round" stroke-linejoin="round"/>
<path d="M50.0003 50.9999L43.3337 44.3333L28.667 58.9999" fill="#FD4F4F"/>
<path d="M50.0003 50.9999L43.3337 44.3333L28.667 58.9999" stroke="#414141" stroke-width="3" stroke-linecap="round" stroke-linejoin="round"/>
</svg>
