<svg width="107" height="58" viewBox="0 0 107 58" fill="none" xmlns="http://www.w3.org/2000/svg">
<path d="M81.472 31.8904C59.064 17.7331 36.318 18.3657 29.5975 20.8459C24.9689 31.1048 34.1485 44.6293 38.0518 50.0233C45.781 55.971 58.109 56.0862 63.307 55.4003C80.312 45.3323 82.645 35.5625 81.472 31.8904Z" fill="#FDC34F"/>
<path d="M81.472 31.8904C72.459 35.1862 46.504 36.9607 29.5975 20.8459M81.472 31.8904L29.5975 20.8459M81.472 31.8904C59.064 17.7331 36.318 18.3657 29.5975 20.8459M81.472 31.8904C82.645 35.5625 80.312 45.3323 63.307 55.4003C58.109 56.0862 45.781 55.971 38.0518 50.0233C34.1485 44.6293 24.9689 31.1048 29.5975 20.8459" stroke="#414141" stroke-width="3"/>
<path d="M68.355 33.9862C65.748 23.0777 53.96 11.855 40.2554 28.0037C43.616 30.5879 57.241 34.7489 68.355 33.9862Z" fill="#FDC34F" stroke="#414141" stroke-width="3"/>
<path d="M81 13C82.774 9.6048 84.962 6.33769 87 3" stroke="#414141" stroke-width="3" stroke-linecap="round" stroke-linejoin="round"/>
<path d="M90 22C93.099 20.9956 96.219 19.003 99 17" stroke="#414141" stroke-width="3" stroke-linecap="round" stroke-linejoin="round"/>
<path d="M96 35C99.169 36.1658 102.093 38.3116 105 40" stroke="#414141" stroke-width="3" stroke-linecap="round" stroke-linejoin="round"/>
<path d="M25 12C23.9402 8.5467 22.6745 5.2202 21 2" stroke="#414141" stroke-width="3" stroke-linecap="round" stroke-linejoin="round"/>
<path d="M13 17C10.1201 15.9133 7.5927 14.7285 5 13" stroke="#414141" stroke-width="3" stroke-linecap="round" stroke-linejoin="round"/>
<path d="M14 32C9.98588 32.5669 6.02001 33.5952 2 34" stroke="#414141" stroke-width="3" stroke-linecap="round" stroke-linejoin="round"/>
</svg>
