<svg width="166" height="60" viewBox="0 0 166 60" fill="none" xmlns="http://www.w3.org/2000/svg">
<path d="M26.268 30.8904C48.6756 16.7331 71.4217 17.3657 78.1422 19.8459C82.7708 30.1048 73.5912 43.6293 69.688 49.0233C61.959 54.971 49.631 55.0862 44.4331 54.4003C27.4276 44.3323 25.0943 34.5625 26.268 30.8904Z" fill="#FDC34F"/>
<path d="M26.268 30.8904C35.2807 34.1862 61.2358 35.9607 78.1422 19.8459M26.268 30.8904C48.6756 16.7331 71.4217 17.3657 78.1422 19.8459M26.268 30.8904C25.0943 34.5625 27.4276 44.3323 44.4331 54.4003C49.631 55.0862 61.959 54.971 69.688 49.0233C73.5912 43.6293 82.7708 30.1048 78.1422 19.8459" stroke="#414141" stroke-width="3"/>
<path d="M39.3852 32.9862C41.9916 22.0777 53.7797 10.855 67.4844 27.0037C64.1235 29.5879 50.4985 33.7489 39.3852 32.9862Z" fill="#FDC34F" stroke="#414141" stroke-width="3"/>
<path d="M140.472 30.8904C118.064 16.7331 95.318 17.3657 88.5975 19.8459C83.9689 30.1048 93.1485 43.6293 97.0518 49.0233C104.781 54.971 117.109 55.0862 122.307 54.4003C139.312 44.3323 141.645 34.5625 140.472 30.8904Z" fill="#FDC34F"/>
<path d="M140.472 30.8904C131.459 34.1862 105.504 35.9607 88.5975 19.8459M140.472 30.8904C118.064 16.7331 95.318 17.3657 88.5975 19.8459M140.472 30.8904C141.645 34.5625 139.312 44.3323 122.307 54.4003C117.109 55.0862 104.781 54.971 97.0518 49.0233C93.1485 43.6293 83.9689 30.1048 88.5975 19.8459" stroke="#414141" stroke-width="3"/>
<path d="M127.355 32.9862C124.748 22.0777 112.96 10.855 99.2554 27.0037C102.616 29.5879 116.241 33.7489 127.355 32.9862Z" fill="#FDC34F" stroke="#414141" stroke-width="3"/>
<path d="M140 12C141.774 8.6048 143.962 5.33769 146 2" stroke="#414141" stroke-width="3" stroke-linecap="round" stroke-linejoin="round"/>
<path d="M149 21C152.099 19.9956 155.219 18.003 158 16" stroke="#414141" stroke-width="3" stroke-linecap="round" stroke-linejoin="round"/>
<path d="M155 34C158.169 35.1658 161.093 37.3116 164 39" stroke="#414141" stroke-width="3" stroke-linecap="round" stroke-linejoin="round"/>
<path d="M25 17C23.9402 13.5467 22.6745 10.2202 21 7" stroke="#414141" stroke-width="3" stroke-linecap="round" stroke-linejoin="round"/>
<path d="M13 22C10.1201 20.9133 7.5927 19.7285 5 18" stroke="#414141" stroke-width="3" stroke-linecap="round" stroke-linejoin="round"/>
<path d="M14 37C9.98588 37.5669 6.02001 38.5952 2 39" stroke="#414141" stroke-width="3" stroke-linecap="round" stroke-linejoin="round"/>
</svg>
