<svg width="109" height="61" viewBox="0 0 109 61" fill="none" xmlns="http://www.w3.org/2000/svg">
<path d="M82.472 33.8904C60.064 19.7331 37.318 20.3657 30.5975 22.8459C25.9689 33.1048 35.1485 46.6293 39.0518 52.0233C46.781 57.971 59.109 58.0862 64.307 57.4003C81.312 47.3323 83.645 37.5625 82.472 33.8904Z" fill="#FDC34F"/>
<path d="M82.472 33.8904C73.459 37.1862 47.504 38.9607 30.5975 22.8459M82.472 33.8904L30.5975 22.8459M82.472 33.8904C60.064 19.7331 37.318 20.3657 30.5975 22.8459M82.472 33.8904C83.645 37.5625 81.312 47.3323 64.307 57.4003C59.109 58.0862 46.781 57.971 39.0518 52.0233C35.1485 46.6293 25.9689 33.1048 30.5975 22.8459" stroke="#414141" stroke-width="3"/>
<path d="M69.355 35.9862C66.748 25.0777 54.96 13.855 41.2554 30.0037C44.616 32.5879 58.241 36.7489 69.355 35.9862Z" fill="#FDC34F" stroke="#414141" stroke-width="3"/>
<path d="M82 15C83.774 11.6048 85.962 8.33769 88 5" stroke="#414141" stroke-width="3" stroke-linecap="round" stroke-linejoin="round"/>
<path d="M91 24C94.099 22.9956 97.219 21.003 100 19" stroke="#414141" stroke-width="3" stroke-linecap="round" stroke-linejoin="round"/>
<path d="M97 37C100.169 38.1658 103.093 40.3116 106 42" stroke="#414141" stroke-width="3" stroke-linecap="round" stroke-linejoin="round"/>
<path d="M26 14C24.9402 10.5467 23.6745 7.2202 22 4" stroke="#414141" stroke-width="3" stroke-linecap="round" stroke-linejoin="round"/>
<path d="M14 19C11.1201 17.9133 8.5927 16.7285 6 15" stroke="#414141" stroke-width="3" stroke-linecap="round" stroke-linejoin="round"/>
<path d="M15 34C10.9859 34.5669 7.02001 35.5952 3 36" stroke="#414141" stroke-width="3" stroke-linecap="round" stroke-linejoin="round"/>
</svg>
