<svg width="753" height="172" viewBox="0 0 753 172" fill="none" xmlns="http://www.w3.org/2000/svg">
<path d="M13.8794 41.3374C14.2212 43.8032 14.8926 45.6465 15.8936 46.8672C17.7246 49.0889 20.8618 50.1997 25.3052 50.1997C27.9663 50.1997 30.127 49.9067 31.7871 49.3208C34.9365 48.1978 36.5112 46.1104 36.5112 43.0586C36.5112 41.2764 35.73 39.897 34.1675 38.9204C32.605 37.9683 30.1514 37.126 26.8066 36.3936L21.0938 35.1118C15.4785 33.8423 11.5967 32.4629 9.44824 30.9736C5.81055 28.4834 3.9917 24.5894 3.9917 19.2915C3.9917 14.4575 5.74951 10.4414 9.26514 7.24316C12.7808 4.04492 17.9443 2.4458 24.7559 2.4458C30.4443 2.4458 35.2905 3.95947 39.2944 6.98682C43.3228 9.98975 45.4346 14.3599 45.6299 20.0972H34.79C34.5947 16.8501 33.1787 14.543 30.542 13.1758C28.7842 12.2725 26.5991 11.8208 23.9868 11.8208C21.0815 11.8208 18.7622 12.4067 17.0288 13.5786C15.2954 14.7505 14.4287 16.3862 14.4287 18.4858C14.4287 20.4146 15.2832 21.855 16.9922 22.8071C18.0908 23.4419 20.4346 24.1865 24.0234 25.041L33.3252 27.2749C37.4023 28.2515 40.4785 29.5576 42.5537 31.1934C45.7764 33.7324 47.3877 37.4067 47.3877 42.2163C47.3877 47.1479 45.4956 51.2495 41.7114 54.521C37.9517 57.7681 32.6294 59.3916 25.7446 59.3916C18.7134 59.3916 13.1836 57.7925 9.15527 54.5942C5.12695 51.3716 3.11279 46.9526 3.11279 41.3374H13.8794ZM70.6421 25.627C68.2251 25.627 66.3452 26.3838 65.0024 27.8975C63.6841 29.4111 62.854 31.4619 62.5122 34.0498H78.7354C78.5645 31.291 77.7222 29.2036 76.2085 27.7876C74.7192 26.3472 72.8638 25.627 70.6421 25.627ZM70.6421 17.021C73.9624 17.021 76.9531 17.6436 79.6143 18.8887C82.2754 20.1338 84.4727 22.0991 86.2061 24.7847C87.7686 27.1528 88.7817 29.8994 89.2456 33.0244C89.5142 34.8555 89.624 37.4922 89.5752 40.9346H62.2559C62.4023 44.9385 63.6597 47.7461 66.0278 49.3574C67.4683 50.3584 69.2017 50.8589 71.228 50.8589C73.3765 50.8589 75.1221 50.2485 76.4648 49.0278C77.1973 48.3687 77.8442 47.4531 78.4058 46.2812H89.0625C88.7939 48.6494 87.561 51.0542 85.3638 53.4956C81.9458 57.3774 77.1606 59.3184 71.0083 59.3184C65.9302 59.3184 61.4502 57.6826 57.5684 54.4111C53.6865 51.1396 51.7456 45.8174 51.7456 38.4443C51.7456 31.5352 53.4912 26.2373 56.9824 22.5508C60.498 18.8643 65.0513 17.021 70.6421 17.021ZM118.762 17.1309C122.888 17.1309 126.257 18.2173 128.87 20.3901C131.506 22.5386 132.825 26.1152 132.825 31.1201V58H122.131V33.7202C122.131 31.6206 121.851 30.0093 121.289 28.8862C120.264 26.8354 118.311 25.8101 115.43 25.8101C111.89 25.8101 109.46 27.3115 108.142 30.3145C107.458 31.9014 107.117 33.9277 107.117 36.3936V58H96.7163V18.1562H106.787V23.979C108.13 21.9282 109.399 20.4512 110.596 19.5479C112.744 17.9365 115.466 17.1309 118.762 17.1309ZM157.214 17.1309C159.631 17.1309 161.78 17.668 163.66 18.7422C165.54 19.792 167.065 21.2568 168.237 23.1367V4.09375H178.821V58H168.677V52.4702C167.188 54.8384 165.491 56.5596 163.586 57.6338C161.682 58.708 159.314 59.2451 156.482 59.2451C151.819 59.2451 147.888 57.3652 144.69 53.6055C141.516 49.8213 139.929 44.9751 139.929 39.0669C139.929 32.2554 141.492 26.8965 144.617 22.9902C147.766 19.084 151.965 17.1309 157.214 17.1309ZM159.485 50.4561C162.439 50.4561 164.685 49.3574 166.223 47.1602C167.761 44.9629 168.53 42.1187 168.53 38.6274C168.53 33.7446 167.297 30.2534 164.832 28.1538C163.318 26.8843 161.56 26.2495 159.558 26.2495C156.506 26.2495 154.26 27.4092 152.82 29.7285C151.404 32.0234 150.696 34.8799 150.696 38.2979C150.696 41.9844 151.416 44.9385 152.856 47.1602C154.321 49.3574 156.531 50.4561 159.485 50.4561ZM210.828 65.6538L212.146 65.7271C213.171 65.7759 214.148 65.7393 215.076 65.6172C216.003 65.4951 216.785 65.2144 217.419 64.7749C218.03 64.3599 218.591 63.4932 219.104 62.1748C219.641 60.8564 219.861 60.0508 219.763 59.7578L205.115 18.083H216.724L225.439 47.5264L233.679 18.083H244.775L231.079 57.3408C228.442 64.9092 226.355 69.5967 224.817 71.4033C223.279 73.2344 220.203 74.1499 215.588 74.1499C214.661 74.1499 213.916 74.1377 213.354 74.1133C212.793 74.1133 211.951 74.0767 210.828 74.0034V65.6538ZM268.872 50.6392C271.924 50.6392 274.268 49.5527 275.903 47.3799C277.539 45.207 278.357 42.1187 278.357 38.1147C278.357 34.1108 277.539 31.0347 275.903 28.8862C274.268 26.7134 271.924 25.627 268.872 25.627C265.82 25.627 263.464 26.7134 261.804 28.8862C260.168 31.0347 259.351 34.1108 259.351 38.1147C259.351 42.1187 260.168 45.207 261.804 47.3799C263.464 49.5527 265.82 50.6392 268.872 50.6392ZM289.307 38.1147C289.307 43.9741 287.622 48.9912 284.253 53.166C280.884 57.3164 275.769 59.3916 268.909 59.3916C262.048 59.3916 256.934 57.3164 253.564 53.166C250.195 48.9912 248.511 43.9741 248.511 38.1147C248.511 32.353 250.195 27.3604 253.564 23.1367C256.934 18.9131 262.048 16.8013 268.909 16.8013C275.769 16.8013 280.884 18.9131 284.253 23.1367C287.622 27.3604 289.307 32.353 289.307 38.1147ZM307.214 18.083V42.1431C307.214 44.4136 307.483 46.1226 308.02 47.27C308.972 49.2964 310.84 50.3096 313.623 50.3096C317.188 50.3096 319.629 48.8691 320.947 45.9883C321.631 44.4258 321.973 42.3628 321.973 39.7993V18.083H332.556V58H322.412V52.3604C322.314 52.4824 322.07 52.8486 321.68 53.459C321.289 54.0693 320.825 54.6064 320.288 55.0703C318.652 56.5352 317.065 57.5361 315.527 58.0732C314.014 58.6104 312.231 58.8789 310.181 58.8789C304.272 58.8789 300.293 56.7549 298.242 52.5068C297.095 50.1631 296.521 46.7085 296.521 42.1431V18.083H307.214ZM364.343 17.1309C364.539 17.1309 364.697 17.1431 364.819 17.1675C364.966 17.1675 365.271 17.1797 365.735 17.2041V27.8975C365.076 27.8242 364.49 27.7754 363.977 27.751C363.464 27.7266 363.049 27.7144 362.732 27.7144C358.533 27.7144 355.713 29.0815 354.272 31.8159C353.467 33.354 353.064 35.7222 353.064 38.9204V58H342.554V18.083H352.515V25.041C354.126 22.3799 355.53 20.561 356.726 19.5845C358.679 17.9487 361.218 17.1309 364.343 17.1309ZM433.521 13.5786H404.956V25.041H431.177V34.416H404.956V48.2954H434.839V58H393.933V4.02051H433.521V13.5786ZM438.684 25.8833V18.4492H444.25V7.31641H454.578V18.4492H461.06V25.8833H454.578V46.9771C454.578 48.6128 454.785 49.6382 455.2 50.0532C455.615 50.4438 456.885 50.6392 459.009 50.6392C459.326 50.6392 459.656 50.6392 459.998 50.6392C460.364 50.6147 460.718 50.5903 461.06 50.5659V58.3662L456.116 58.5493C451.184 58.7202 447.815 57.8657 446.008 55.9858C444.836 54.7896 444.25 52.9463 444.25 50.4561V25.8833H438.684ZM489.771 17.0576C492.236 17.0576 494.47 17.4849 496.472 18.3394C498.499 19.1938 500.159 20.5 501.453 22.2578C502.551 23.7471 503.223 25.2852 503.467 26.8721C503.711 28.4346 503.833 30.998 503.833 34.5625V58H493.176V33.7202C493.176 31.5718 492.81 29.8384 492.078 28.52C491.125 26.6646 489.319 25.7368 486.658 25.7368C483.899 25.7368 481.799 26.6646 480.359 28.52C478.943 30.3511 478.235 32.9756 478.235 36.3936V58H467.834V4.20361H478.235V23.2832C479.749 20.9639 481.494 19.3525 483.472 18.4492C485.474 17.5215 487.573 17.0576 489.771 17.0576ZM529.358 25.627C526.941 25.627 525.061 26.3838 523.718 27.8975C522.4 29.4111 521.57 31.4619 521.228 34.0498H537.451C537.28 31.291 536.438 29.2036 534.924 27.7876C533.435 26.3472 531.58 25.627 529.358 25.627ZM529.358 17.021C532.678 17.021 535.669 17.6436 538.33 18.8887C540.991 20.1338 543.188 22.0991 544.922 24.7847C546.484 27.1528 547.498 29.8994 547.961 33.0244C548.23 34.8555 548.34 37.4922 548.291 40.9346H520.972C521.118 44.9385 522.375 47.7461 524.744 49.3574C526.184 50.3584 527.917 50.8589 529.944 50.8589C532.092 50.8589 533.838 50.2485 535.181 49.0278C535.913 48.3687 536.56 47.4531 537.122 46.2812H547.778C547.51 48.6494 546.277 51.0542 544.08 53.4956C540.662 57.3774 535.876 59.3184 529.724 59.3184C524.646 59.3184 520.166 57.6826 516.284 54.4111C512.402 51.1396 510.461 45.8174 510.461 38.4443C510.461 31.5352 512.207 26.2373 515.698 22.5508C519.214 18.8643 523.767 17.021 529.358 17.021ZM577.039 17.1309C577.234 17.1309 577.393 17.1431 577.515 17.1675C577.661 17.1675 577.966 17.1797 578.43 17.2041V27.8975C577.771 27.8242 577.185 27.7754 576.672 27.751C576.16 27.7266 575.745 27.7144 575.427 27.7144C571.228 27.7144 568.408 29.0815 566.968 31.8159C566.162 33.354 565.759 35.7222 565.759 38.9204V58H555.249V18.083H565.21V25.041C566.821 22.3799 568.225 20.561 569.421 19.5845C571.375 17.9487 573.914 17.1309 577.039 17.1309ZM600.33 25.627C597.913 25.627 596.033 26.3838 594.69 27.8975C593.372 29.4111 592.542 31.4619 592.2 34.0498H608.423C608.252 31.291 607.41 29.2036 605.896 27.7876C604.407 26.3472 602.551 25.627 600.33 25.627ZM600.33 17.021C603.65 17.021 606.641 17.6436 609.302 18.8887C611.963 20.1338 614.16 22.0991 615.894 24.7847C617.456 27.1528 618.469 29.8994 618.933 33.0244C619.202 34.8555 619.312 37.4922 619.263 40.9346H591.943C592.09 44.9385 593.347 47.7461 595.715 49.3574C597.156 50.3584 598.889 50.8589 600.916 50.8589C603.064 50.8589 604.81 50.2485 606.152 49.0278C606.885 48.3687 607.532 47.4531 608.093 46.2812H618.75C618.481 48.6494 617.249 51.0542 615.051 53.4956C611.633 57.3774 606.848 59.3184 600.696 59.3184C595.618 59.3184 591.138 57.6826 587.256 54.4111C583.374 51.1396 581.433 45.8174 581.433 38.4443C581.433 31.5352 583.179 26.2373 586.67 22.5508C590.186 18.8643 594.739 17.021 600.33 17.021ZM636.731 18.083V42.1431C636.731 44.4136 637 46.1226 637.537 47.27C638.489 49.2964 640.356 50.3096 643.14 50.3096C646.704 50.3096 649.146 48.8691 650.464 45.9883C651.147 44.4258 651.489 42.3628 651.489 39.7993V18.083H662.073V58H651.929V52.3604C651.831 52.4824 651.587 52.8486 651.196 53.459C650.806 54.0693 650.342 54.6064 649.805 55.0703C648.169 56.5352 646.582 57.5361 645.044 58.0732C643.53 58.6104 641.748 58.8789 639.697 58.8789C633.789 58.8789 629.81 56.7549 627.759 52.5068C626.611 50.1631 626.038 46.7085 626.038 42.1431V18.083H636.731ZM716.785 17.2041C718.542 17.2041 720.276 17.5459 721.985 18.2295C723.694 18.9131 725.244 20.1094 726.636 21.8184C727.759 23.21 728.516 24.9189 728.906 26.9453C729.15 28.2881 729.272 30.2534 729.272 32.8413L729.199 58H718.506V32.585C718.506 31.0713 718.262 29.8262 717.773 28.8496C716.846 26.9941 715.137 26.0664 712.646 26.0664C709.766 26.0664 707.776 27.2627 706.677 29.6553C706.116 30.9248 705.835 32.4507 705.835 34.2329V58H695.325V34.2329C695.325 31.8647 695.081 30.1436 694.592 29.0693C693.713 27.1406 691.992 26.1763 689.429 26.1763C686.45 26.1763 684.448 27.1406 683.423 29.0693C682.861 30.168 682.581 31.8037 682.581 33.9766V58H671.997V18.1562H682.141V23.979C683.435 21.9038 684.656 20.4268 685.803 19.5479C687.83 17.9854 690.454 17.2041 693.677 17.2041C696.729 17.2041 699.194 17.8755 701.074 19.2183C702.588 20.4634 703.735 22.0625 704.517 24.0156C705.884 21.6719 707.581 19.9507 709.607 18.8521C711.755 17.7534 714.148 17.2041 716.785 17.2041Z" fill="url(#paint0_linear)"/>
<path d="M5.63965 155V101.021H16.8091V121.602H37.9028V101.021H49.1089V155H37.9028V130.903H16.8091V155H5.63965ZM76.9775 147.639C80.0293 147.639 82.373 146.553 84.0088 144.38C85.6445 142.207 86.4624 139.119 86.4624 135.115C86.4624 131.111 85.6445 128.035 84.0088 125.886C82.373 123.713 80.0293 122.627 76.9775 122.627C73.9258 122.627 71.5698 123.713 69.9097 125.886C68.2739 128.035 67.4561 131.111 67.4561 135.115C67.4561 139.119 68.2739 142.207 69.9097 144.38C71.5698 146.553 73.9258 147.639 76.9775 147.639ZM97.4121 135.115C97.4121 140.974 95.7275 145.991 92.3584 150.166C88.9893 154.316 83.8745 156.392 77.0142 156.392C70.1538 156.392 65.0391 154.316 61.6699 150.166C58.3008 145.991 56.6162 140.974 56.6162 135.115C56.6162 129.353 58.3008 124.36 61.6699 120.137C65.0391 115.913 70.1538 113.801 77.0142 113.801C83.8745 113.801 88.9893 115.913 92.3584 120.137C95.7275 124.36 97.4121 129.353 97.4121 135.115ZM127.039 114.131C131.165 114.131 134.534 115.217 137.146 117.39C139.783 119.539 141.101 123.115 141.101 128.12V155H130.408V130.72C130.408 128.621 130.127 127.009 129.565 125.886C128.54 123.835 126.587 122.81 123.706 122.81C120.166 122.81 117.737 124.312 116.418 127.314C115.735 128.901 115.393 130.928 115.393 133.394V155H104.993V115.156H115.063V120.979C116.406 118.928 117.676 117.451 118.872 116.548C121.021 114.937 123.743 114.131 127.039 114.131ZM167.908 146.431C170.349 146.431 172.412 145.515 174.097 143.684C175.781 141.829 176.624 138.887 176.624 134.858C176.624 131.074 175.818 128.193 174.207 126.216C172.62 124.238 170.483 123.25 167.798 123.25C164.136 123.25 161.609 124.971 160.217 128.413C159.485 130.244 159.119 132.502 159.119 135.188C159.119 137.507 159.509 139.57 160.291 141.377C161.707 144.746 164.246 146.431 167.908 146.431ZM165.308 114.131C167.31 114.131 169.055 114.436 170.544 115.046C173.083 116.096 175.134 118.025 176.697 120.833V115.083H186.841V152.949C186.841 158.101 185.974 161.982 184.241 164.595C181.262 169.087 175.549 171.333 167.102 171.333C162 171.333 157.837 170.332 154.614 168.33C151.392 166.328 149.609 163.337 149.268 159.358H160.62C160.913 160.579 161.389 161.458 162.048 161.995C163.171 162.947 165.063 163.423 167.725 163.423C171.484 163.423 173.999 162.166 175.269 159.651C176.099 158.04 176.514 155.33 176.514 151.521V148.958C175.513 150.667 174.438 151.948 173.291 152.803C171.216 154.39 168.518 155.183 165.198 155.183C160.071 155.183 155.969 153.389 152.893 149.8C149.841 146.187 148.315 141.304 148.315 135.151C148.315 129.219 149.792 124.238 152.747 120.21C155.701 116.157 159.888 114.131 165.308 114.131ZM218.188 114.204C223.438 114.204 227.539 116.096 230.493 119.88C233.472 123.665 234.961 128.547 234.961 134.529C234.961 140.73 233.496 145.869 230.566 149.946C227.637 154.023 223.547 156.062 218.298 156.062C215.002 156.062 212.354 155.403 210.352 154.084C209.155 153.303 207.861 151.936 206.47 149.983V155H196.252V101.094H206.653V120.283C207.971 118.428 209.424 117.012 211.011 116.035C212.891 114.814 215.283 114.204 218.188 114.204ZM215.515 147.456C218.201 147.456 220.288 146.37 221.777 144.197C223.267 142.024 224.011 139.167 224.011 135.627C224.011 132.795 223.645 130.452 222.913 128.596C221.521 125.081 218.958 123.323 215.222 123.323C211.438 123.323 208.838 125.044 207.422 128.486C206.689 130.317 206.323 132.686 206.323 135.591C206.323 139.009 207.08 141.841 208.594 144.087C210.107 146.333 212.415 147.456 215.515 147.456ZM264.478 135.591C263.818 136.006 263.147 136.348 262.463 136.616C261.804 136.86 260.889 137.092 259.717 137.312L257.373 137.751C255.176 138.142 253.601 138.618 252.649 139.18C251.038 140.132 250.232 141.609 250.232 143.611C250.232 145.393 250.72 146.687 251.697 147.493C252.698 148.274 253.906 148.665 255.322 148.665C257.568 148.665 259.631 148.005 261.511 146.687C263.416 145.369 264.404 142.964 264.478 139.473V135.591ZM258.142 130.72C260.071 130.476 261.45 130.171 262.28 129.805C263.77 129.17 264.514 128.181 264.514 126.838C264.514 125.203 263.94 124.08 262.793 123.469C261.67 122.834 260.01 122.517 257.812 122.517C255.347 122.517 253.601 123.127 252.576 124.348C251.843 125.251 251.355 126.472 251.111 128.01H241.04C241.26 124.519 242.236 121.65 243.97 119.404C246.729 115.889 251.465 114.131 258.179 114.131C262.549 114.131 266.431 114.998 269.824 116.731C273.218 118.464 274.915 121.736 274.915 126.545V144.856C274.915 146.125 274.939 147.664 274.988 149.47C275.061 150.837 275.269 151.765 275.61 152.253C275.952 152.742 276.465 153.145 277.148 153.462V155H265.796C265.479 154.194 265.259 153.438 265.137 152.729C265.015 152.021 264.917 151.216 264.844 150.312C263.403 151.875 261.743 153.206 259.863 154.304C257.617 155.598 255.078 156.245 252.246 156.245C248.633 156.245 245.642 155.22 243.274 153.169C240.93 151.094 239.758 148.164 239.758 144.38C239.758 139.473 241.65 135.92 245.435 133.723C247.51 132.527 250.562 131.672 254.59 131.16L258.142 130.72ZM302.124 147.639C305.176 147.639 307.52 146.553 309.155 144.38C310.791 142.207 311.609 139.119 311.609 135.115C311.609 131.111 310.791 128.035 309.155 125.886C307.52 123.713 305.176 122.627 302.124 122.627C299.072 122.627 296.716 123.713 295.056 125.886C293.42 128.035 292.603 131.111 292.603 135.115C292.603 139.119 293.42 142.207 295.056 144.38C296.716 146.553 299.072 147.639 302.124 147.639ZM322.559 135.115C322.559 140.974 320.874 145.991 317.505 150.166C314.136 154.316 309.021 156.392 302.161 156.392C295.3 156.392 290.186 154.316 286.816 150.166C283.447 145.991 281.763 140.974 281.763 135.115C281.763 129.353 283.447 124.36 286.816 120.137C290.186 115.913 295.3 113.801 302.161 113.801C309.021 113.801 314.136 115.913 317.505 120.137C320.874 124.36 322.559 129.353 322.559 135.115ZM375.549 115.083H386.755L372.363 155H361.34L347.021 115.083H358.74L367.053 144.526L375.549 115.083ZM403.418 110.322H392.834V100.691H403.418V110.322ZM392.834 115.083H403.418V155H392.834V115.083ZM435.571 135.591C434.912 136.006 434.241 136.348 433.557 136.616C432.898 136.86 431.982 137.092 430.811 137.312L428.467 137.751C426.27 138.142 424.695 138.618 423.743 139.18C422.131 140.132 421.326 141.609 421.326 143.611C421.326 145.393 421.814 146.687 422.791 147.493C423.792 148.274 425 148.665 426.416 148.665C428.662 148.665 430.725 148.005 432.605 146.687C434.509 145.369 435.498 142.964 435.571 139.473V135.591ZM429.236 130.72C431.165 130.476 432.544 130.171 433.374 129.805C434.863 129.17 435.608 128.181 435.608 126.838C435.608 125.203 435.034 124.08 433.887 123.469C432.764 122.834 431.104 122.517 428.906 122.517C426.44 122.517 424.695 123.127 423.669 124.348C422.937 125.251 422.449 126.472 422.205 128.01H412.134C412.354 124.519 413.33 121.65 415.063 119.404C417.822 115.889 422.559 114.131 429.272 114.131C433.643 114.131 437.524 114.998 440.918 116.731C444.312 118.464 446.008 121.736 446.008 126.545V144.856C446.008 146.125 446.033 147.664 446.082 149.47C446.155 150.837 446.362 151.765 446.704 152.253C447.046 152.742 447.559 153.145 448.242 153.462V155H436.89C436.572 154.194 436.353 153.438 436.23 152.729C436.108 152.021 436.011 151.216 435.938 150.312C434.497 151.875 432.837 153.206 430.957 154.304C428.711 155.598 426.172 156.245 423.34 156.245C419.727 156.245 416.736 155.22 414.368 153.169C412.024 151.094 410.852 148.164 410.852 144.38C410.852 139.473 412.744 135.92 416.528 133.723C418.604 132.527 421.655 131.672 425.684 131.16L429.236 130.72ZM484.387 101.021L491.528 131.929L493.066 140.535L494.641 132.112L500.72 101.021H512.622L519.031 131.929L520.679 140.535L522.327 132.258L529.541 101.021H541.003L525.806 155H515.039L508.521 123.433L506.616 112.996L504.712 123.433L498.193 155H487.72L472.412 101.021H484.387ZM562.756 122.627C560.339 122.627 558.459 123.384 557.117 124.897C555.798 126.411 554.968 128.462 554.626 131.05H570.85C570.679 128.291 569.836 126.204 568.323 124.788C566.833 123.347 564.978 122.627 562.756 122.627ZM562.756 114.021C566.077 114.021 569.067 114.644 571.729 115.889C574.39 117.134 576.587 119.099 578.32 121.785C579.883 124.153 580.896 126.899 581.36 130.024C581.628 131.855 581.738 134.492 581.689 137.935H554.37C554.517 141.938 555.774 144.746 558.142 146.357C559.583 147.358 561.316 147.859 563.342 147.859C565.491 147.859 567.236 147.249 568.579 146.028C569.312 145.369 569.958 144.453 570.52 143.281H581.177C580.908 145.649 579.675 148.054 577.478 150.496C574.06 154.377 569.275 156.318 563.123 156.318C558.044 156.318 553.564 154.683 549.683 151.411C545.801 148.14 543.86 142.817 543.86 135.444C543.86 128.535 545.605 123.237 549.097 119.551C552.612 115.864 557.166 114.021 562.756 114.021ZM612.598 129.402C612.402 127.913 611.902 126.57 611.096 125.374C609.924 123.762 608.105 122.957 605.64 122.957C602.124 122.957 599.719 124.702 598.425 128.193C597.742 130.049 597.4 132.515 597.4 135.591C597.4 138.521 597.742 140.876 598.425 142.659C599.67 145.979 602.014 147.639 605.457 147.639C607.898 147.639 609.631 146.98 610.657 145.662C611.682 144.343 612.305 142.634 612.524 140.535H623.181C622.937 143.708 621.79 146.711 619.739 149.543C616.467 154.109 611.621 156.392 605.2 156.392C598.779 156.392 594.055 154.487 591.028 150.679C588 146.87 586.487 141.926 586.487 135.847C586.487 128.987 588.159 123.652 591.504 119.844C594.849 116.035 599.463 114.131 605.347 114.131C610.352 114.131 614.441 115.254 617.615 117.5C620.813 119.746 622.705 123.713 623.291 129.402H612.598ZM652.515 114.058C654.98 114.058 657.214 114.485 659.216 115.339C661.243 116.194 662.903 117.5 664.197 119.258C665.295 120.747 665.967 122.285 666.211 123.872C666.455 125.435 666.577 127.998 666.577 131.562V155H655.92V130.72C655.92 128.572 655.554 126.838 654.822 125.52C653.87 123.665 652.063 122.737 649.402 122.737C646.643 122.737 644.543 123.665 643.103 125.52C641.687 127.351 640.979 129.976 640.979 133.394V155H630.579V101.204H640.979V120.283C642.493 117.964 644.238 116.353 646.216 115.449C648.218 114.521 650.317 114.058 652.515 114.058ZM698.364 135.591C697.705 136.006 697.034 136.348 696.35 136.616C695.691 136.86 694.775 137.092 693.604 137.312L691.26 137.751C689.062 138.142 687.488 138.618 686.536 139.18C684.924 140.132 684.119 141.609 684.119 143.611C684.119 145.393 684.607 146.687 685.583 147.493C686.584 148.274 687.793 148.665 689.209 148.665C691.455 148.665 693.518 148.005 695.398 146.687C697.302 145.369 698.291 142.964 698.364 139.473V135.591ZM692.029 130.72C693.958 130.476 695.337 130.171 696.167 129.805C697.656 129.17 698.401 128.181 698.401 126.838C698.401 125.203 697.827 124.08 696.68 123.469C695.557 122.834 693.896 122.517 691.699 122.517C689.233 122.517 687.488 123.127 686.462 124.348C685.73 125.251 685.242 126.472 684.998 128.01H674.927C675.146 124.519 676.123 121.65 677.856 119.404C680.615 115.889 685.352 114.131 692.065 114.131C696.436 114.131 700.317 114.998 703.711 116.731C707.104 118.464 708.801 121.736 708.801 126.545V144.856C708.801 146.125 708.826 147.664 708.875 149.47C708.948 150.837 709.155 151.765 709.497 152.253C709.839 152.742 710.352 153.145 711.035 153.462V155H699.683C699.365 154.194 699.146 153.438 699.023 152.729C698.901 152.021 698.804 151.216 698.73 150.312C697.29 151.875 695.63 153.206 693.75 154.304C691.504 155.598 688.965 156.245 686.133 156.245C682.52 156.245 679.529 155.22 677.161 153.169C674.817 151.094 673.645 148.164 673.645 144.38C673.645 139.473 675.537 135.92 679.321 133.723C681.396 132.527 684.448 131.672 688.477 131.16L692.029 130.72ZM714.001 122.883V115.449H719.568V104.316H729.895V115.449H736.377V122.883H729.895V143.977C729.895 145.613 730.103 146.638 730.518 147.053C730.933 147.444 732.202 147.639 734.326 147.639C734.644 147.639 734.973 147.639 735.315 147.639C735.681 147.615 736.035 147.59 736.377 147.566V155.366L731.433 155.549C726.501 155.72 723.132 154.866 721.326 152.986C720.154 151.79 719.568 149.946 719.568 147.456V122.883H714.001Z" fill="url(#paint1_linear)"/>
<defs>
<linearGradient id="paint0_linear" x1="233.476" y1="6.5354e-06" x2="279.28" y2="202.503" gradientUnits="userSpaceOnUse">
<stop stop-color="#FFE353"/>
<stop offset="0.155872" stop-color="#FFE353" stop-opacity="0.603391"/>
<stop offset="0.284612" stop-color="#5F5F5F" stop-opacity="0.38"/>
<stop offset="0.362508" stop-color="#FFE353" stop-opacity="0.668"/>
<stop offset="0.602761" stop-color="#FFE353" stop-opacity="0.814533"/>
<stop offset="0.750322" stop-color="#737373" stop-opacity="0.64"/>
<stop offset="0.809366" stop-color="#FFE353" stop-opacity="0.887558"/>
<stop offset="1" stop-color="#9D554B"/>
</linearGradient>
<linearGradient id="paint1_linear" x1="233.476" y1="97" x2="279.28" y2="299.503" gradientUnits="userSpaceOnUse">
<stop stop-color="#FFE353"/>
<stop offset="0.155872" stop-color="#FFE353" stop-opacity="0.603391"/>
<stop offset="0.284612" stop-color="#5F5F5F" stop-opacity="0.38"/>
<stop offset="0.362508" stop-color="#FFE353" stop-opacity="0.668"/>
<stop offset="0.602761" stop-color="#FFE353" stop-opacity="0.814533"/>
<stop offset="0.750322" stop-color="#737373" stop-opacity="0.64"/>
<stop offset="0.809366" stop-color="#FFE353" stop-opacity="0.887558"/>
<stop offset="1" stop-color="#9D554B"/>
</linearGradient>
</defs>
</svg>
