<svg width="228" height="36" viewBox="0 0 228 36" fill="none" xmlns="http://www.w3.org/2000/svg">
<path d="M7.22852 8.79736V21.4097H13.5347C14.3989 21.4097 15.2119 21.2485 15.9736 20.9263C16.7354 20.5894 17.4019 20.1353 17.9731 19.564C18.5444 18.9927 18.9912 18.3262 19.3135 17.5645C19.6504 16.7881 19.8188 15.9678 19.8188 15.1035C19.8188 14.2393 19.6504 13.4263 19.3135 12.6646C18.9912 11.8882 18.5444 11.2144 17.9731 10.6431C17.4019 10.0718 16.7354 9.625 15.9736 9.30273C15.2119 8.96582 14.3989 8.79736 13.5347 8.79736H7.22852ZM7.22852 34H0.922363V2.49121H13.5347C14.6919 2.49121 15.8052 2.64502 16.8745 2.95264C17.9438 3.24561 18.9399 3.67041 19.8628 4.22705C20.8003 4.76904 21.6499 5.42822 22.4116 6.20459C23.188 6.96631 23.8472 7.81592 24.3892 8.75342C24.9458 9.69092 25.3706 10.6943 25.6636 11.7637C25.9712 12.833 26.125 13.9463 26.125 15.1035C26.125 16.1875 25.9858 17.2422 25.7075 18.2676C25.4438 19.293 25.0557 20.2671 24.543 21.1899C24.0449 22.1128 23.4297 22.9624 22.6973 23.7388C21.9648 24.5151 21.1445 25.189 20.2363 25.7603L23.73 34H17.0283L14.2817 27.6499L7.22852 27.6938V34Z" fill="black"/>
<path d="M52.1626 34H50.7124L48.3833 30.77C47.812 31.2827 47.2041 31.7661 46.5596 32.2202C45.9297 32.6597 45.2632 33.0479 44.5601 33.3848C43.8569 33.707 43.1318 33.9634 42.3848 34.1538C41.6523 34.3442 40.9053 34.4395 40.1436 34.4395C38.4883 34.4395 36.9282 34.1611 35.4634 33.6045C34.0132 33.0479 32.7388 32.2422 31.6401 31.1875C30.5562 30.1182 29.6992 28.8145 29.0693 27.2764C28.4395 25.7383 28.1245 23.9878 28.1245 22.0249C28.1245 20.1938 28.4395 18.5166 29.0693 16.9932C29.6992 15.4551 30.5562 14.1367 31.6401 13.0381C32.7388 11.9395 34.0132 11.0898 35.4634 10.4893C36.9282 9.87402 38.4883 9.56641 40.1436 9.56641C40.9053 9.56641 41.6597 9.66162 42.4067 9.85205C43.1538 10.0425 43.8789 10.3062 44.582 10.6431C45.2852 10.98 45.9517 11.3755 46.5815 11.8296C47.2261 12.2837 47.8267 12.7744 48.3833 13.3018L50.7124 10.5112H52.1626V34ZM46.1201 22.0249C46.1201 21.2046 45.959 20.4136 45.6367 19.6519C45.3291 18.8755 44.9043 18.1943 44.3623 17.6084C43.8203 17.0078 43.1831 16.5317 42.4507 16.1802C41.7329 15.814 40.9639 15.6309 40.1436 15.6309C39.3232 15.6309 38.5469 15.77 37.8145 16.0483C37.0967 16.3267 36.4668 16.7368 35.9248 17.2788C35.3975 17.8208 34.98 18.4946 34.6724 19.3003C34.3647 20.0913 34.2109 20.9995 34.2109 22.0249C34.2109 23.0503 34.3647 23.9658 34.6724 24.7715C34.98 25.5625 35.3975 26.229 35.9248 26.771C36.4668 27.313 37.0967 27.7231 37.8145 28.0015C38.5469 28.2798 39.3232 28.4189 40.1436 28.4189C40.9639 28.4189 41.7329 28.2432 42.4507 27.8916C43.1831 27.5254 43.8203 27.0493 44.3623 26.4634C44.9043 25.8628 45.3291 25.1816 45.6367 24.4199C45.959 23.6436 46.1201 22.8452 46.1201 22.0249Z" fill="black"/>
<path d="M79.4966 34H78.0464L75.7173 30.77C75.146 31.2827 74.5381 31.7661 73.8936 32.2202C73.2637 32.6597 72.5972 33.0479 71.894 33.3848C71.1909 33.707 70.4658 33.9634 69.7188 34.1538C68.9863 34.3442 68.2393 34.4395 67.4775 34.4395C65.8223 34.4395 64.2622 34.1318 62.7974 33.5166C61.3472 32.8867 60.0728 32.0225 58.9741 30.9238C57.8901 29.8105 57.0332 28.4995 56.4033 26.9907C55.7734 25.4673 55.4585 23.812 55.4585 22.0249C55.4585 20.2524 55.7734 18.6045 56.4033 17.0811C57.0332 15.5576 57.8901 14.2393 58.9741 13.126C60.0728 12.0127 61.3472 11.1411 62.7974 10.5112C64.2622 9.88135 65.8223 9.56641 67.4775 9.56641C68.0049 9.56641 68.5469 9.61035 69.1035 9.69824C69.6748 9.78613 70.2241 9.93262 70.7515 10.1377C71.2935 10.3281 71.7988 10.5845 72.2676 10.9067C72.7363 11.229 73.1318 11.6245 73.4541 12.0933V1.10693H79.4966V34ZM73.4541 22.0249C73.4541 21.2046 73.293 20.4136 72.9707 19.6519C72.6631 18.8755 72.2383 18.1943 71.6963 17.6084C71.1543 17.0078 70.5171 16.5317 69.7847 16.1802C69.0669 15.814 68.2979 15.6309 67.4775 15.6309C66.6572 15.6309 65.8809 15.7773 65.1484 16.0703C64.4307 16.3633 63.8008 16.7881 63.2588 17.3447C62.7314 17.8867 62.314 18.5532 62.0063 19.3442C61.6987 20.1353 61.5449 21.0288 61.5449 22.0249C61.5449 22.8892 61.6987 23.7095 62.0063 24.4858C62.314 25.2622 62.7314 25.9434 63.2588 26.5293C63.8008 27.1152 64.4307 27.5767 65.1484 27.9136C65.8809 28.2505 66.6572 28.4189 67.4775 28.4189C68.2979 28.4189 69.0669 28.2432 69.7847 27.8916C70.5171 27.5254 71.1543 27.0493 71.6963 26.4634C72.2383 25.8628 72.6631 25.1816 72.9707 24.4199C73.293 23.6436 73.4541 22.8452 73.4541 22.0249Z" fill="black"/>
<path d="M91.1641 4.07324C91.1641 4.62988 91.0542 5.1499 90.8345 5.6333C90.6294 6.1167 90.3438 6.5415 89.9775 6.90771C89.6113 7.25928 89.1792 7.54492 88.6812 7.76465C88.1978 7.96973 87.6777 8.07227 87.1211 8.07227C86.5645 8.07227 86.0371 7.96973 85.5391 7.76465C85.0557 7.54492 84.6309 7.25928 84.2646 6.90771C83.9131 6.5415 83.6274 6.1167 83.4077 5.6333C83.2026 5.1499 83.1001 4.62988 83.1001 4.07324C83.1001 3.53125 83.2026 3.01855 83.4077 2.53516C83.6274 2.03711 83.9131 1.6123 84.2646 1.26074C84.6309 0.894531 85.0557 0.608887 85.5391 0.403809C86.0371 0.184082 86.5645 0.0742188 87.1211 0.0742188C87.6777 0.0742188 88.1978 0.184082 88.6812 0.403809C89.1792 0.608887 89.6113 0.894531 89.9775 1.26074C90.3438 1.6123 90.6294 2.03711 90.8345 2.53516C91.0542 3.01855 91.1641 3.53125 91.1641 4.07324ZM90.1313 34H84.0889V10.4673H90.1313V34Z" fill="black"/>
<path d="M102.106 31.7588C102.106 32.2861 102.011 32.7842 101.821 33.2529C101.63 33.707 101.367 34.1025 101.03 34.4395C100.693 34.7764 100.297 35.04 99.8433 35.2305C99.3892 35.4355 98.8984 35.5381 98.3711 35.5381C97.8584 35.5381 97.3677 35.4355 96.8989 35.2305C96.4448 35.04 96.042 34.7764 95.6904 34.4395C95.3535 34.1025 95.0825 33.707 94.8774 33.2529C94.687 32.7842 94.5918 32.2861 94.5918 31.7588C94.5918 31.2461 94.687 30.7627 94.8774 30.3086C95.0825 29.8545 95.3535 29.459 95.6904 29.1221C96.042 28.7852 96.4448 28.5215 96.8989 28.3311C97.3677 28.126 97.8584 28.0234 98.3711 28.0234C98.8984 28.0234 99.3892 28.126 99.8433 28.3311C100.297 28.5215 100.693 28.7852 101.03 29.1221C101.367 29.459 101.63 29.8545 101.821 30.3086C102.011 30.7627 102.106 31.2461 102.106 31.7588Z" fill="black"/>
<path d="M131.726 30.77C130.261 32.0298 128.62 32.9966 126.804 33.6704C124.987 34.3442 123.105 34.6812 121.157 34.6812C119.663 34.6812 118.22 34.4834 116.828 34.0879C115.451 33.707 114.155 33.165 112.939 32.4619C111.738 31.7441 110.639 30.8872 109.643 29.8911C108.647 28.895 107.79 27.7964 107.072 26.5952C106.369 25.3794 105.82 24.083 105.424 22.7061C105.043 21.3145 104.853 19.8716 104.853 18.3774C104.853 16.8833 105.043 15.4404 105.424 14.0488C105.82 12.6572 106.369 11.3608 107.072 10.1597C107.79 8.94385 108.647 7.83789 109.643 6.8418C110.639 5.8457 111.738 4.99609 112.939 4.29297C114.155 3.5752 115.451 3.02588 116.828 2.64502C118.22 2.24951 119.663 2.05176 121.157 2.05176C123.105 2.05176 124.987 2.38867 126.804 3.0625C128.62 3.72168 130.261 4.68848 131.726 5.96289L128.386 11.4561C127.463 10.46 126.372 9.69824 125.112 9.1709C123.852 8.62891 122.534 8.35791 121.157 8.35791C119.765 8.35791 118.461 8.62158 117.246 9.14893C116.03 9.67627 114.968 10.394 114.06 11.3022C113.151 12.1958 112.434 13.2578 111.906 14.4883C111.379 15.7041 111.115 17.0005 111.115 18.3774C111.115 19.7544 111.379 21.0508 111.906 22.2666C112.434 23.4678 113.151 24.5225 114.06 25.4307C114.968 26.3389 116.03 27.0566 117.246 27.584C118.461 28.1113 119.765 28.375 121.157 28.375C122.534 28.375 123.852 28.1113 125.112 27.584C126.372 27.042 127.463 26.2729 128.386 25.2769L131.726 30.77Z" fill="black"/>
<path d="M156.708 34H155.258L152.929 30.77C152.358 31.2827 151.75 31.7661 151.105 32.2202C150.476 32.6597 149.809 33.0479 149.106 33.3848C148.403 33.707 147.678 33.9634 146.931 34.1538C146.198 34.3442 145.451 34.4395 144.689 34.4395C143.034 34.4395 141.474 34.1611 140.009 33.6045C138.559 33.0479 137.285 32.2422 136.186 31.1875C135.102 30.1182 134.245 28.8145 133.615 27.2764C132.985 25.7383 132.67 23.9878 132.67 22.0249C132.67 20.1938 132.985 18.5166 133.615 16.9932C134.245 15.4551 135.102 14.1367 136.186 13.0381C137.285 11.9395 138.559 11.0898 140.009 10.4893C141.474 9.87402 143.034 9.56641 144.689 9.56641C145.451 9.56641 146.206 9.66162 146.953 9.85205C147.7 10.0425 148.425 10.3062 149.128 10.6431C149.831 10.98 150.498 11.3755 151.127 11.8296C151.772 12.2837 152.373 12.7744 152.929 13.3018L155.258 10.5112H156.708V34ZM150.666 22.0249C150.666 21.2046 150.505 20.4136 150.183 19.6519C149.875 18.8755 149.45 18.1943 148.908 17.6084C148.366 17.0078 147.729 16.5317 146.997 16.1802C146.279 15.814 145.51 15.6309 144.689 15.6309C143.869 15.6309 143.093 15.77 142.36 16.0483C141.643 16.3267 141.013 16.7368 140.471 17.2788C139.943 17.8208 139.526 18.4946 139.218 19.3003C138.911 20.0913 138.757 20.9995 138.757 22.0249C138.757 23.0503 138.911 23.9658 139.218 24.7715C139.526 25.5625 139.943 26.229 140.471 26.771C141.013 27.313 141.643 27.7231 142.36 28.0015C143.093 28.2798 143.869 28.4189 144.689 28.4189C145.51 28.4189 146.279 28.2432 146.997 27.8916C147.729 27.5254 148.366 27.0493 148.908 26.4634C149.45 25.8628 149.875 25.1816 150.183 24.4199C150.505 23.6436 150.666 22.8452 150.666 22.0249Z" fill="black"/>
<path d="M167.299 34H161.301V10.4673H162.751L164.729 13.2578C165.695 12.3789 166.794 11.7051 168.024 11.2363C169.255 10.7529 170.529 10.5112 171.848 10.5112H177.143V16.4878H171.848C171.218 16.4878 170.625 16.605 170.068 16.8394C169.511 17.0737 169.028 17.396 168.618 17.8062C168.208 18.2163 167.885 18.6997 167.651 19.2563C167.417 19.813 167.299 20.4062 167.299 21.0361V34Z" fill="black"/>
<path d="M202.236 34H200.786L198.457 30.77C197.885 31.2827 197.277 31.7661 196.633 32.2202C196.003 32.6597 195.336 33.0479 194.633 33.3848C193.93 33.707 193.205 33.9634 192.458 34.1538C191.726 34.3442 190.979 34.4395 190.217 34.4395C188.562 34.4395 187.001 34.1318 185.537 33.5166C184.086 32.8867 182.812 32.0225 181.713 30.9238C180.629 29.8105 179.772 28.4995 179.143 26.9907C178.513 25.4673 178.198 23.812 178.198 22.0249C178.198 20.2524 178.513 18.6045 179.143 17.0811C179.772 15.5576 180.629 14.2393 181.713 13.126C182.812 12.0127 184.086 11.1411 185.537 10.5112C187.001 9.88135 188.562 9.56641 190.217 9.56641C190.744 9.56641 191.286 9.61035 191.843 9.69824C192.414 9.78613 192.963 9.93262 193.491 10.1377C194.033 10.3281 194.538 10.5845 195.007 10.9067C195.476 11.229 195.871 11.6245 196.193 12.0933V1.10693H202.236V34ZM196.193 22.0249C196.193 21.2046 196.032 20.4136 195.71 19.6519C195.402 18.8755 194.978 18.1943 194.436 17.6084C193.894 17.0078 193.256 16.5317 192.524 16.1802C191.806 15.814 191.037 15.6309 190.217 15.6309C189.396 15.6309 188.62 15.7773 187.888 16.0703C187.17 16.3633 186.54 16.7881 185.998 17.3447C185.471 17.8867 185.053 18.5532 184.746 19.3442C184.438 20.1353 184.284 21.0288 184.284 22.0249C184.284 22.8892 184.438 23.7095 184.746 24.4858C185.053 25.2622 185.471 25.9434 185.998 26.5293C186.54 27.1152 187.17 27.5767 187.888 27.9136C188.62 28.2505 189.396 28.4189 190.217 28.4189C191.037 28.4189 191.806 28.2432 192.524 27.8916C193.256 27.5254 193.894 27.0493 194.436 26.4634C194.978 25.8628 195.402 25.1816 195.71 24.4199C196.032 23.6436 196.193 22.8452 196.193 22.0249Z" fill="black"/>
<path d="M219.748 34H206.037V28.0234H219.748C220.158 28.0234 220.51 27.877 220.803 27.584C221.096 27.291 221.242 26.9395 221.242 26.5293C221.242 26.1045 221.096 25.8262 220.803 25.6943C220.51 25.5625 220.158 25.4966 219.748 25.4966H213.508C212.468 25.4966 211.494 25.2988 210.585 24.9033C209.677 24.5078 208.886 23.9731 208.212 23.2993C207.539 22.6108 207.004 21.8125 206.608 20.9043C206.228 19.9961 206.037 19.022 206.037 17.9819C206.037 16.9419 206.228 15.9678 206.608 15.0596C207.004 14.1514 207.539 13.3604 208.212 12.6865C208.886 12.0127 209.677 11.4854 210.585 11.1045C211.494 10.709 212.468 10.5112 213.508 10.5112H225.659V16.4878H213.508C213.098 16.4878 212.746 16.6343 212.453 16.9272C212.16 17.2202 212.014 17.5718 212.014 17.9819C212.014 18.4067 212.16 18.7729 212.453 19.0806C212.746 19.3735 213.098 19.52 213.508 19.52H219.748C220.773 19.52 221.74 19.6958 222.648 20.0474C223.557 20.3843 224.348 20.8604 225.021 21.4756C225.695 22.0908 226.23 22.8306 226.625 23.6948C227.021 24.5591 227.219 25.5039 227.219 26.5293C227.219 27.5693 227.021 28.5435 226.625 29.4517C226.23 30.3452 225.695 31.1362 225.021 31.8247C224.348 32.4985 223.557 33.0332 222.648 33.4287C221.74 33.8096 220.773 34 219.748 34Z" fill="black"/>
</svg>
