<svg width="317" height="86" viewBox="0 0 317 86" fill="none" xmlns="http://www.w3.org/2000/svg">
<path d="M209.102 22.7988V28.4043H211.904C212.288 28.4043 212.65 28.3327 212.988 28.1895C213.327 28.0397 213.623 27.8379 213.877 27.584C214.131 27.3301 214.329 27.0339 214.473 26.6953C214.622 26.3503 214.697 25.9857 214.697 25.6016C214.697 25.2174 214.622 24.8561 214.473 24.5176C214.329 24.1725 214.131 23.873 213.877 23.6191C213.623 23.3652 213.327 23.1667 212.988 23.0234C212.65 22.8737 212.288 22.7988 211.904 22.7988H209.102ZM209.102 34H206.299V19.9961H211.904C212.419 19.9961 212.913 20.0645 213.389 20.2012C213.864 20.3314 214.307 20.5202 214.717 20.7676C215.133 21.0085 215.511 21.3014 215.85 21.6465C216.195 21.985 216.488 22.3626 216.729 22.7793C216.976 23.196 217.165 23.6419 217.295 24.1172C217.432 24.5924 217.5 25.0872 217.5 25.6016C217.5 26.0833 217.438 26.5521 217.314 27.0078C217.197 27.4635 217.025 27.8965 216.797 28.3066C216.576 28.7168 216.302 29.0944 215.977 29.4395C215.651 29.7845 215.286 30.084 214.883 30.3379L216.436 34H213.457L212.236 31.1777L209.102 31.1973V34ZM229.072 34H228.428L227.393 32.5645C227.139 32.7923 226.868 33.0072 226.582 33.209C226.302 33.4043 226.006 33.5768 225.693 33.7266C225.381 33.8698 225.059 33.9837 224.727 34.0684C224.401 34.153 224.069 34.1953 223.73 34.1953C222.995 34.1953 222.301 34.0716 221.65 33.8242C221.006 33.5768 220.439 33.2188 219.951 32.75C219.469 32.2747 219.089 31.6953 218.809 31.0117C218.529 30.3281 218.389 29.5501 218.389 28.6777C218.389 27.8639 218.529 27.1185 218.809 26.4414C219.089 25.7578 219.469 25.1719 219.951 24.6836C220.439 24.1953 221.006 23.8177 221.65 23.5508C222.301 23.2773 222.995 23.1406 223.73 23.1406C224.069 23.1406 224.404 23.1829 224.736 23.2676C225.068 23.3522 225.391 23.4694 225.703 23.6191C226.016 23.7689 226.312 23.9447 226.592 24.1465C226.878 24.3483 227.145 24.5664 227.393 24.8008L228.428 23.5605H229.072V34ZM226.387 28.6777C226.387 28.3132 226.315 27.9616 226.172 27.623C226.035 27.278 225.846 26.9753 225.605 26.7148C225.365 26.4479 225.081 26.2363 224.756 26.0801C224.437 25.9173 224.095 25.8359 223.73 25.8359C223.366 25.8359 223.021 25.8978 222.695 26.0215C222.376 26.1452 222.096 26.3275 221.855 26.5684C221.621 26.8092 221.436 27.1087 221.299 27.4668C221.162 27.8184 221.094 28.222 221.094 28.6777C221.094 29.1335 221.162 29.5404 221.299 29.8984C221.436 30.25 221.621 30.5462 221.855 30.7871C222.096 31.028 222.376 31.2103 222.695 31.334C223.021 31.4577 223.366 31.5195 223.73 31.5195C224.095 31.5195 224.437 31.4414 224.756 31.2852C225.081 31.1224 225.365 30.9108 225.605 30.6504C225.846 30.3835 226.035 30.0807 226.172 29.7422C226.315 29.3971 226.387 29.0423 226.387 28.6777ZM241.221 34H240.576L239.541 32.5645C239.287 32.7923 239.017 33.0072 238.73 33.209C238.451 33.4043 238.154 33.5768 237.842 33.7266C237.529 33.8698 237.207 33.9837 236.875 34.0684C236.549 34.153 236.217 34.1953 235.879 34.1953C235.143 34.1953 234.45 34.0586 233.799 33.7852C233.154 33.5052 232.588 33.1211 232.1 32.6328C231.618 32.138 231.237 31.5553 230.957 30.8848C230.677 30.2077 230.537 29.472 230.537 28.6777C230.537 27.89 230.677 27.1576 230.957 26.4805C231.237 25.8034 231.618 25.2174 232.1 24.7227C232.588 24.2279 233.154 23.8405 233.799 23.5605C234.45 23.2806 235.143 23.1406 235.879 23.1406C236.113 23.1406 236.354 23.1602 236.602 23.1992C236.855 23.2383 237.1 23.3034 237.334 23.3945C237.575 23.4792 237.799 23.5931 238.008 23.7363C238.216 23.8796 238.392 24.0553 238.535 24.2637V19.3809H241.221V34ZM238.535 28.6777C238.535 28.3132 238.464 27.9616 238.32 27.623C238.184 27.278 237.995 26.9753 237.754 26.7148C237.513 26.4479 237.23 26.2363 236.904 26.0801C236.585 25.9173 236.243 25.8359 235.879 25.8359C235.514 25.8359 235.169 25.901 234.844 26.0312C234.525 26.1615 234.245 26.3503 234.004 26.5977C233.77 26.8385 233.584 27.1348 233.447 27.4863C233.311 27.8379 233.242 28.235 233.242 28.6777C233.242 29.0618 233.311 29.4264 233.447 29.7715C233.584 30.1165 233.77 30.4193 234.004 30.6797C234.245 30.9401 234.525 31.1452 234.844 31.2949C235.169 31.4447 235.514 31.5195 235.879 31.5195C236.243 31.5195 236.585 31.4414 236.904 31.2852C237.23 31.1224 237.513 30.9108 237.754 30.6504C237.995 30.3835 238.184 30.0807 238.32 29.7422C238.464 29.3971 238.535 29.0423 238.535 28.6777ZM246.406 20.6992C246.406 20.9466 246.357 21.1777 246.26 21.3926C246.169 21.6074 246.042 21.7962 245.879 21.959C245.716 22.1152 245.524 22.2422 245.303 22.3398C245.088 22.431 244.857 22.4766 244.609 22.4766C244.362 22.4766 244.128 22.431 243.906 22.3398C243.691 22.2422 243.503 22.1152 243.34 21.959C243.184 21.7962 243.057 21.6074 242.959 21.3926C242.868 21.1777 242.822 20.9466 242.822 20.6992C242.822 20.4583 242.868 20.2305 242.959 20.0156C243.057 19.7943 243.184 19.6055 243.34 19.4492C243.503 19.2865 243.691 19.1595 243.906 19.0684C244.128 18.9707 244.362 18.9219 244.609 18.9219C244.857 18.9219 245.088 18.9707 245.303 19.0684C245.524 19.1595 245.716 19.2865 245.879 19.4492C246.042 19.6055 246.169 19.7943 246.26 20.0156C246.357 20.2305 246.406 20.4583 246.406 20.6992ZM245.947 34H243.262V23.541H245.947V34ZM251.27 33.0039C251.27 33.2383 251.227 33.4596 251.143 33.668C251.058 33.8698 250.941 34.0456 250.791 34.1953C250.641 34.3451 250.465 34.4622 250.264 34.5469C250.062 34.638 249.844 34.6836 249.609 34.6836C249.382 34.6836 249.163 34.638 248.955 34.5469C248.753 34.4622 248.574 34.3451 248.418 34.1953C248.268 34.0456 248.148 33.8698 248.057 33.668C247.972 33.4596 247.93 33.2383 247.93 33.0039C247.93 32.776 247.972 32.5612 248.057 32.3594C248.148 32.1576 248.268 31.9818 248.418 31.832C248.574 31.6823 248.753 31.5651 248.955 31.4805C249.163 31.3893 249.382 31.3438 249.609 31.3438C249.844 31.3438 250.062 31.3893 250.264 31.4805C250.465 31.5651 250.641 31.6823 250.791 31.832C250.941 31.9818 251.058 32.1576 251.143 32.3594C251.227 32.5612 251.27 32.776 251.27 33.0039ZM264.434 32.5645C263.783 33.1243 263.053 33.554 262.246 33.8535C261.439 34.153 260.602 34.3027 259.736 34.3027C259.072 34.3027 258.431 34.2148 257.812 34.0391C257.201 33.8698 256.624 33.6289 256.084 33.3164C255.55 32.9974 255.062 32.6165 254.619 32.1738C254.176 31.7311 253.796 31.2428 253.477 30.709C253.164 30.1686 252.92 29.5924 252.744 28.9805C252.575 28.362 252.49 27.7207 252.49 27.0566C252.49 26.3926 252.575 25.7513 252.744 25.1328C252.92 24.5143 253.164 23.9382 253.477 23.4043C253.796 22.8639 254.176 22.3724 254.619 21.9297C255.062 21.487 255.55 21.1094 256.084 20.7969C256.624 20.4779 257.201 20.2337 257.812 20.0645C258.431 19.8887 259.072 19.8008 259.736 19.8008C260.602 19.8008 261.439 19.9505 262.246 20.25C263.053 20.543 263.783 20.9727 264.434 21.5391L262.949 23.9805C262.539 23.5378 262.054 23.1992 261.494 22.9648C260.934 22.724 260.348 22.6035 259.736 22.6035C259.118 22.6035 258.538 22.7207 257.998 22.9551C257.458 23.1895 256.986 23.5085 256.582 23.9121C256.178 24.3092 255.859 24.7812 255.625 25.3281C255.391 25.8685 255.273 26.4447 255.273 27.0566C255.273 27.6686 255.391 28.2448 255.625 28.7852C255.859 29.319 256.178 29.7878 256.582 30.1914C256.986 30.5951 257.458 30.9141 257.998 31.1484C258.538 31.3828 259.118 31.5 259.736 31.5C260.348 31.5 260.934 31.3828 261.494 31.1484C262.054 30.9076 262.539 30.5658 262.949 30.123L264.434 32.5645ZM275.537 34H274.893L273.857 32.5645C273.604 32.7923 273.333 33.0072 273.047 33.209C272.767 33.4043 272.471 33.5768 272.158 33.7266C271.846 33.8698 271.523 33.9837 271.191 34.0684C270.866 34.153 270.534 34.1953 270.195 34.1953C269.46 34.1953 268.766 34.0716 268.115 33.8242C267.471 33.5768 266.904 33.2188 266.416 32.75C265.934 32.2747 265.553 31.6953 265.273 31.0117C264.993 30.3281 264.854 29.5501 264.854 28.6777C264.854 27.8639 264.993 27.1185 265.273 26.4414C265.553 25.7578 265.934 25.1719 266.416 24.6836C266.904 24.1953 267.471 23.8177 268.115 23.5508C268.766 23.2773 269.46 23.1406 270.195 23.1406C270.534 23.1406 270.869 23.1829 271.201 23.2676C271.533 23.3522 271.855 23.4694 272.168 23.6191C272.48 23.7689 272.777 23.9447 273.057 24.1465C273.343 24.3483 273.61 24.5664 273.857 24.8008L274.893 23.5605H275.537V34ZM272.852 28.6777C272.852 28.3132 272.78 27.9616 272.637 27.623C272.5 27.278 272.311 26.9753 272.07 26.7148C271.829 26.4479 271.546 26.2363 271.221 26.0801C270.902 25.9173 270.56 25.8359 270.195 25.8359C269.831 25.8359 269.486 25.8978 269.16 26.0215C268.841 26.1452 268.561 26.3275 268.32 26.5684C268.086 26.8092 267.9 27.1087 267.764 27.4668C267.627 27.8184 267.559 28.222 267.559 28.6777C267.559 29.1335 267.627 29.5404 267.764 29.8984C267.9 30.25 268.086 30.5462 268.32 30.7871C268.561 31.028 268.841 31.2103 269.16 31.334C269.486 31.4577 269.831 31.5195 270.195 31.5195C270.56 31.5195 270.902 31.4414 271.221 31.2852C271.546 31.1224 271.829 30.9108 272.07 30.6504C272.311 30.3835 272.5 30.0807 272.637 29.7422C272.78 29.3971 272.852 29.0423 272.852 28.6777ZM280.244 34H277.578V23.541H278.223L279.102 24.7812C279.531 24.3906 280.02 24.0911 280.566 23.8828C281.113 23.668 281.68 23.5605 282.266 23.5605H284.619V26.2168H282.266C281.986 26.2168 281.722 26.2689 281.475 26.373C281.227 26.4772 281.012 26.6204 280.83 26.8027C280.648 26.985 280.505 27.1999 280.4 27.4473C280.296 27.6947 280.244 27.9583 280.244 28.2383V34ZM295.771 34H295.127L294.092 32.5645C293.838 32.7923 293.568 33.0072 293.281 33.209C293.001 33.4043 292.705 33.5768 292.393 33.7266C292.08 33.8698 291.758 33.9837 291.426 34.0684C291.1 34.153 290.768 34.1953 290.43 34.1953C289.694 34.1953 289.001 34.0586 288.35 33.7852C287.705 33.5052 287.139 33.1211 286.65 32.6328C286.169 32.138 285.788 31.5553 285.508 30.8848C285.228 30.2077 285.088 29.472 285.088 28.6777C285.088 27.89 285.228 27.1576 285.508 26.4805C285.788 25.8034 286.169 25.2174 286.65 24.7227C287.139 24.2279 287.705 23.8405 288.35 23.5605C289.001 23.2806 289.694 23.1406 290.43 23.1406C290.664 23.1406 290.905 23.1602 291.152 23.1992C291.406 23.2383 291.65 23.3034 291.885 23.3945C292.126 23.4792 292.35 23.5931 292.559 23.7363C292.767 23.8796 292.943 24.0553 293.086 24.2637V19.3809H295.771V34ZM293.086 28.6777C293.086 28.3132 293.014 27.9616 292.871 27.623C292.734 27.278 292.546 26.9753 292.305 26.7148C292.064 26.4479 291.781 26.2363 291.455 26.0801C291.136 25.9173 290.794 25.8359 290.43 25.8359C290.065 25.8359 289.72 25.901 289.395 26.0312C289.076 26.1615 288.796 26.3503 288.555 26.5977C288.32 26.8385 288.135 27.1348 287.998 27.4863C287.861 27.8379 287.793 28.235 287.793 28.6777C287.793 29.0618 287.861 29.4264 287.998 29.7715C288.135 30.1165 288.32 30.4193 288.555 30.6797C288.796 30.9401 289.076 31.1452 289.395 31.2949C289.72 31.4447 290.065 31.5195 290.43 31.5195C290.794 31.5195 291.136 31.4414 291.455 31.2852C291.781 31.1224 292.064 30.9108 292.305 30.6504C292.546 30.3835 292.734 30.0807 292.871 29.7422C293.014 29.3971 293.086 29.0423 293.086 28.6777ZM303.555 34H297.461V31.3438H303.555C303.737 31.3438 303.893 31.2786 304.023 31.1484C304.154 31.0182 304.219 30.862 304.219 30.6797C304.219 30.4909 304.154 30.3672 304.023 30.3086C303.893 30.25 303.737 30.2207 303.555 30.2207H300.781C300.319 30.2207 299.886 30.1328 299.482 29.957C299.079 29.7812 298.727 29.5436 298.428 29.2441C298.128 28.9382 297.891 28.5833 297.715 28.1797C297.546 27.776 297.461 27.3431 297.461 26.8809C297.461 26.4186 297.546 25.9857 297.715 25.582C297.891 25.1784 298.128 24.8268 298.428 24.5273C298.727 24.2279 299.079 23.9935 299.482 23.8242C299.886 23.6484 300.319 23.5605 300.781 23.5605H306.182V26.2168H300.781C300.599 26.2168 300.443 26.2819 300.312 26.4121C300.182 26.5423 300.117 26.6986 300.117 26.8809C300.117 27.0697 300.182 27.2324 300.312 27.3691C300.443 27.4993 300.599 27.5645 300.781 27.5645H303.555C304.01 27.5645 304.44 27.6426 304.844 27.7988C305.247 27.9486 305.599 28.1602 305.898 28.4336C306.198 28.707 306.436 29.0358 306.611 29.4199C306.787 29.804 306.875 30.224 306.875 30.6797C306.875 31.1419 306.787 31.5749 306.611 31.9785C306.436 32.3757 306.198 32.7272 305.898 33.0332C305.599 33.3327 305.247 33.5703 304.844 33.7461C304.44 33.9154 304.01 34 303.555 34Z" fill="#272727"/>
<path d="M73.1403 40.975C73.7403 40.975 74.2153 41.175 74.5653 41.575C74.9653 41.975 75.1653 42.475 75.1653 43.075C75.1653 43.675 74.9653 44.175 74.5653 44.575C74.2153 44.925 73.7403 45.1 73.1403 45.1H72.9903C71.5403 45.1 70.1653 44.825 68.8653 44.275C67.5653 43.725 66.4403 42.975 65.4903 42.025C64.5403 41.025 63.7653 39.9 63.1653 38.65C62.6153 37.4 62.3403 36 62.3403 34.45V22.075C62.3403 21.425 62.5403 20.925 62.9403 20.575C63.3403 20.225 63.8403 20.05 64.4403 20.05C65.0403 20.05 65.5153 20.225 65.8653 20.575C66.2153 20.925 66.3903 21.425 66.3903 22.075V34.45C66.3903 36.3 67.0153 37.85 68.2653 39.1C69.5653 40.35 71.1653 40.975 73.0653 40.975H73.1403ZM75.3903 35.05C75.3903 35.8 75.0903 36.45 74.4903 37C73.9403 37.5 73.2903 37.75 72.5403 37.75C71.8403 37.75 71.1903 37.5 70.5903 37C70.0403 36.45 69.7653 35.8 69.7653 35.05C69.7653 34.25 70.0403 33.575 70.5903 33.025C71.1903 32.475 71.8403 32.2 72.5403 32.2C73.2903 32.2 73.9403 32.475 74.4903 33.025C75.0903 33.575 75.3903 34.25 75.3903 35.05ZM72.6153 53.2C72.0653 53.2 71.5903 53 71.1903 52.6C70.7903 52.2 70.5903 51.725 70.5903 51.175C70.5903 50.625 70.7903 50.15 71.1903 49.75C71.5903 49.3 72.0653 49.075 72.6153 49.075H74.2653C75.8153 49.075 77.1403 48.575 78.2403 47.575C79.3403 46.425 79.8903 45.075 79.8903 43.525V25.675C79.8903 25.075 80.0653 24.6 80.4153 24.25C80.8153 23.85 81.2903 23.65 81.8403 23.65C82.4403 23.65 82.9403 23.85 83.3403 24.25C83.7403 24.6 83.9403 25.075 83.9403 25.675V43.525C83.9403 44.875 83.6653 46.125 83.1153 47.275C82.6153 48.425 81.9153 49.45 81.0153 50.35C80.1153 51.25 79.0903 51.95 77.9403 52.45C76.7903 52.95 75.5653 53.2 74.2653 53.2H72.6153ZM84.6903 51.1C84.6903 50.35 84.9403 49.7 85.4403 49.15C85.9403 48.6 86.6153 48.325 87.4653 48.325C88.2153 48.325 88.8403 48.6 89.3403 49.15C89.8903 49.7 90.1653 50.35 90.1653 51.1V51.175C90.1653 51.975 89.8903 52.65 89.3403 53.2C88.8403 53.7 88.2153 53.95 87.4653 53.95C86.6153 53.95 85.9403 53.7 85.4403 53.2C84.9403 52.65 84.6903 51.975 84.6903 51.175V51.1ZM110.993 34.3C111.293 35.85 111.943 37.175 112.943 38.275C114.293 39.975 116.068 41 118.268 41.35C118.818 41.4 119.243 41.65 119.543 42.1C119.843 42.5 119.918 43 119.768 43.6C119.718 44.15 119.468 44.6 119.018 44.95C118.568 45.3 118.093 45.4 117.593 45.25C116.043 44.95 114.618 44.45 113.318 43.75C112.018 43 110.868 42.025 109.868 40.825C109.418 40.325 109.068 39.85 108.818 39.4C108.568 39.85 108.193 40.325 107.693 40.825C106.743 42.025 105.618 43 104.318 43.75C103.018 44.45 101.618 44.95 100.118 45.25C99.5681 45.4 99.0681 45.3 98.6181 44.95C98.2181 44.6 97.9431 44.15 97.7931 43.6C97.6931 43 97.7931 42.5 98.0931 42.1C98.3931 41.65 98.8431 41.4 99.4431 41.35C101.643 41 103.393 39.975 104.693 38.275C105.693 37.175 106.343 35.85 106.643 34.3H101.168C100.618 34.3 100.143 34.125 99.7431 33.775C99.3931 33.375 99.2181 32.875 99.2181 32.275C99.2181 31.675 99.3931 31.175 99.7431 30.775C100.143 30.375 100.618 30.175 101.168 30.175H106.793V26.275C106.793 25.725 106.993 25.275 107.393 24.925C107.793 24.525 108.268 24.325 108.818 24.325C109.368 24.325 109.843 24.525 110.243 24.925C110.693 25.275 110.918 25.725 110.918 26.275V30.175H116.393C117.043 30.175 117.543 30.375 117.893 30.775C118.243 31.175 118.418 31.675 118.418 32.275C118.418 32.875 118.243 33.375 117.893 33.775C117.543 34.125 117.043 34.3 116.393 34.3H110.993ZM105.968 46.9C105.968 46.1 106.243 45.425 106.793 44.875C107.393 44.325 108.068 44.05 108.818 44.05C109.618 44.05 110.293 44.325 110.843 44.875C111.443 45.425 111.743 46.1 111.743 46.9C111.743 47.7 111.443 48.375 110.843 48.925C110.293 49.425 109.618 49.675 108.818 49.675C108.068 49.675 107.393 49.425 106.793 48.925C106.243 48.375 105.968 47.7 105.968 46.9ZM152.501 30.25V44.425H157.451C158.001 44.425 158.451 44.6 158.801 44.95C159.201 45.3 159.401 45.775 159.401 46.375C159.401 46.975 159.201 47.475 158.801 47.875C158.451 48.275 158.001 48.475 157.451 48.475H150.401H150.101H143.426C142.926 48.475 142.451 48.275 142.001 47.875C141.601 47.475 141.401 46.975 141.401 46.375C141.401 45.775 141.601 45.3 142.001 44.95C142.451 44.6 142.926 44.425 143.426 44.425H148.376V30.25H144.101C143.651 30.25 143.201 30.05 142.751 29.65C142.351 29.25 142.151 28.775 142.151 28.225C142.151 27.675 142.351 27.2 142.751 26.8C143.201 26.35 143.651 26.125 144.101 26.125H150.101H150.401H156.776C157.376 26.125 157.851 26.35 158.201 26.8C158.551 27.2 158.726 27.675 158.726 28.225C158.726 28.775 158.551 29.25 158.201 29.65C157.851 30.05 157.376 30.25 156.776 30.25H152.501ZM135.851 31.225C136.251 31.125 136.551 30.875 136.751 30.475C137.201 30.075 137.701 29.85 138.251 29.8C138.801 29.75 139.276 29.925 139.676 30.325C140.126 30.675 140.351 31.125 140.351 31.675C140.401 32.175 140.251 32.625 139.901 33.025C139.351 33.775 138.551 34.4 137.501 34.9C136.601 35.3 135.626 35.5 134.576 35.5H134.501C133.801 35.5 133.101 35.775 132.401 36.325C132.201 36.625 132.001 36.95 131.801 37.3C131.601 37.6 131.501 37.975 131.501 38.425V38.575C131.501 39.025 131.601 39.4 131.801 39.7L132.401 40.6C133.001 41.15 133.701 41.425 134.501 41.425H137.501C138.101 41.425 138.576 41.625 138.926 42.025C139.326 42.375 139.526 42.875 139.526 43.525C139.526 44.125 139.326 44.6 138.926 44.95C138.576 45.3 138.101 45.475 137.501 45.475H134.501C133.551 45.475 132.651 45.3 131.801 44.95C130.951 44.6 130.226 44.1 129.626 43.45C129.026 42.8 128.526 42.05 128.126 41.2C127.726 40.35 127.526 39.475 127.526 38.575V38.425C127.526 37.425 127.726 36.525 128.126 35.725C128.526 34.925 129.026 34.225 129.626 33.625V33.475C128.226 32.225 127.526 30.6 127.526 28.6V28.525C127.526 26.525 128.226 24.9 129.626 23.65C130.876 22.25 132.501 21.55 134.501 21.55H136.751C137.401 21.55 137.901 21.75 138.251 22.15C138.601 22.5 138.776 22.975 138.776 23.575C138.776 24.125 138.601 24.6 138.251 25C137.901 25.4 137.401 25.6 136.751 25.6H134.501C133.701 25.6 133.001 25.9 132.401 26.5C132.201 26.75 132.001 27.05 131.801 27.4C131.601 27.7 131.501 28.075 131.501 28.525V28.6C131.501 29.05 131.601 29.45 131.801 29.8C132.001 30.15 132.201 30.45 132.401 30.7C133.001 31.3 133.701 31.6 134.501 31.6H134.576C134.826 31.6 135.026 31.575 135.176 31.525C135.376 31.475 135.601 31.375 135.851 31.225ZM132.176 52.525C131.676 52.525 131.201 52.35 130.751 52C130.351 51.6 130.151 51.1 130.151 50.5C130.151 49.9 130.351 49.425 130.751 49.075C131.201 48.675 131.676 48.475 132.176 48.475H137.426C138.026 48.475 138.501 48.675 138.851 49.075C139.251 49.425 139.451 49.9 139.451 50.5C139.451 51.1 139.251 51.6 138.851 52C138.501 52.35 138.026 52.525 137.426 52.525H132.176ZM170.83 24.55C169.33 23.65 168.18 22.35 167.38 20.65C167.08 20.15 167.03 19.675 167.23 19.225C167.43 18.725 167.755 18.35 168.205 18.1C168.705 17.8 169.205 17.75 169.705 17.95C170.255 18.1 170.655 18.425 170.905 18.925C171.355 19.875 172.005 20.575 172.855 21.025C173.705 21.475 174.73 21.7 175.93 21.7H180.655C182.555 21.7 184.355 22.1 186.055 22.9C187.755 23.65 189.205 24.65 190.405 25.9C191.755 27.15 192.805 28.625 193.555 30.325C194.305 32.025 194.68 33.85 194.68 35.8V41.8C194.68 42.25 194.455 42.7 194.005 43.15C193.605 43.55 193.13 43.75 192.58 43.75C191.98 43.75 191.505 43.55 191.155 43.15C190.805 42.7 190.63 42.25 190.63 41.8V35.8C190.63 34.4 190.355 33.1 189.805 31.9C189.255 30.7 188.53 29.65 187.63 28.75C186.73 27.8 185.68 27.075 184.48 26.575C183.33 26.075 182.055 25.825 180.655 25.825H175.93C173.93 25.825 172.23 25.4 170.83 24.55ZM182.83 43.6C182.28 43.8 181.755 43.8 181.255 43.6C180.805 43.35 180.455 42.975 180.205 42.475C180.005 41.975 180.005 41.475 180.205 40.975C180.455 40.425 180.805 40.05 181.255 39.85C181.905 39.6 182.505 39.15 183.055 38.5C183.505 37.9 183.73 37.2 183.73 36.4C183.73 35.4 183.355 34.525 182.605 33.775C181.855 33.025 180.98 32.65 179.98 32.65C178.83 32.65 177.955 33.025 177.355 33.775C176.555 34.375 176.155 35.25 176.155 36.4V48.475C176.155 49.525 176.53 50.425 177.28 51.175C178.08 51.925 178.955 52.3 179.905 52.3H180.73C181.28 52.3 181.78 52.2 182.23 52C182.68 51.8 183.055 51.55 183.355 51.25C184.105 50.45 184.48 49.525 184.48 48.475C184.48 47.925 184.655 47.475 185.005 47.125C185.355 46.725 185.83 46.525 186.43 46.525C187.03 46.525 187.505 46.725 187.855 47.125C188.255 47.475 188.455 47.925 188.455 48.475C188.455 49.575 188.255 50.6 187.855 51.55C187.455 52.5 186.905 53.3 186.205 53.95C185.455 54.75 184.605 55.35 183.655 55.75C182.705 56.1 181.73 56.275 180.73 56.275H179.905C177.705 56.275 175.88 55.5 174.43 53.95C172.93 52.5 172.18 50.675 172.18 48.475V36.325C172.18 35.225 172.38 34.225 172.78 33.325C173.18 32.425 173.73 31.575 174.43 30.775C175.18 30.125 176.005 29.6 176.905 29.2C177.805 28.75 178.78 28.525 179.83 28.525C180.93 28.525 181.93 28.75 182.83 29.2C183.78 29.6 184.63 30.175 185.38 30.925C186.88 32.475 187.63 34.3 187.63 36.4C187.63 37.2 187.505 37.975 187.255 38.725C187.005 39.475 186.68 40.125 186.28 40.675C185.38 42.075 184.23 43.05 182.83 43.6Z" fill="#272727"/>
<circle cx="26.501" cy="36.5" r="24.5" fill="#272727"/>
<g filter="url(#filter0_d)">
<path d="M45.0648 24.5313L23.6338 17.4443L13.1298 49.2082L34.5609 56.2952L45.0648 24.5313Z" fill="#C41818"/>
<path d="M45.0648 24.5313L23.6338 17.4443L13.1298 49.2082L34.5609 56.2952L45.0648 24.5313Z" stroke="black" stroke-width="1.5"/>
</g>
<path d="M35.4638 36.9524L34.3655 40.5693L35.6285 40.9528C35.7689 40.9954 35.8701 41.0749 35.9323 41.1914C36.0073 41.3117 36.0215 41.4484 35.975 41.6015C35.9285 41.7546 35.8388 41.8666 35.7057 41.9377C35.5854 42.0127 35.4551 42.0288 35.3147 41.9862L33.5158 41.44L33.4393 41.4167L31.7361 40.8996C31.6085 40.8608 31.5028 40.773 31.419 40.636C31.3479 40.503 31.3356 40.3599 31.3821 40.2068C31.4286 40.0537 31.5164 39.948 31.6456 39.8897C31.7875 39.8353 31.9223 39.8274 32.0499 39.8661L33.3129 40.2497L34.4112 36.6327L33.3204 36.3015C33.2056 36.2667 33.1062 36.1808 33.0224 36.0438C32.9513 35.9108 32.9371 35.7741 32.9797 35.6337C33.0223 35.4934 33.1102 35.3877 33.2432 35.3166C33.3929 35.2367 33.5252 35.2141 33.64 35.249L35.171 35.7139L35.2475 35.7371L36.8742 36.231C37.0273 36.2775 37.1311 36.3717 37.1855 36.5137C37.2438 36.6429 37.2517 36.7776 37.209 36.918C37.1664 37.0583 37.085 37.1659 36.9647 37.2409C36.8444 37.3158 36.7077 37.3301 36.5546 37.2836L35.4638 36.9524ZM31.1398 35.9111C31.2496 35.9166 31.3455 35.876 31.4275 35.7894C31.5733 35.7222 31.7183 35.7036 31.8626 35.7334C32.0068 35.7633 32.1144 35.8447 32.1855 35.9778C32.2732 36.102 32.2957 36.2342 32.2531 36.3746C32.2271 36.506 32.154 36.6092 32.0337 36.6842C31.8353 36.8329 31.5827 36.9304 31.276 36.9767C31.0154 37.009 30.7511 36.9845 30.4832 36.9031L30.4641 36.8973C30.2855 36.8431 30.0855 36.859 29.8643 36.9451C29.79 37.0062 29.7138 37.0736 29.6357 37.1474C29.5614 37.2085 29.5068 37.2964 29.4719 37.4112L29.4603 37.4495C29.4255 37.5643 29.4219 37.6678 29.4497 37.7598L29.5331 38.0359C29.6436 38.2228 29.8009 38.3472 30.005 38.4091L30.7705 38.6416C30.9236 38.6881 31.0293 38.7759 31.0876 38.9051C31.1625 39.0254 31.1748 39.1685 31.1245 39.3343C31.078 39.4874 30.9902 39.5931 30.861 39.6514C30.7445 39.7136 30.6098 39.7215 30.4567 39.675L29.6912 39.4426C29.4488 39.3689 29.2327 39.2546 29.0429 39.0994C28.8532 38.9442 28.7069 38.7605 28.6042 38.5481C28.5014 38.3358 28.432 38.1057 28.3958 37.8578C28.3596 37.6099 28.3763 37.3712 28.4461 37.1415L28.4577 37.1032C28.5352 36.8481 28.6559 36.6339 28.82 36.4608C28.984 36.2876 29.1658 36.1478 29.3654 36.0412L29.377 36.0029C29.1167 35.5755 29.064 35.1066 29.2189 34.5963L29.2247 34.5771C29.3797 34.0668 29.6842 33.7064 30.1383 33.4959C30.5657 33.2355 31.0346 33.1828 31.5449 33.3378L32.119 33.5121C32.2849 33.5625 32.397 33.6523 32.4553 33.7814C32.5175 33.8979 32.5253 34.0326 32.4788 34.1857C32.4362 34.3261 32.3548 34.4337 32.2345 34.5087C32.1142 34.5836 31.9711 34.5959 31.8052 34.5455L31.2311 34.3712C31.027 34.3092 30.8251 34.3315 30.6255 34.4381C30.5551 34.4864 30.4809 34.5475 30.4027 34.6213C30.3284 34.6823 30.2739 34.7703 30.239 34.8851L30.2332 34.9042C30.1983 35.0191 30.1928 35.1289 30.2168 35.2337C30.2407 35.3385 30.2685 35.4305 30.3001 35.5098C30.4067 35.7094 30.5621 35.8402 30.7662 35.9022L30.7854 35.908C30.8492 35.9274 30.9021 35.9365 30.9443 35.9353C30.9992 35.9381 31.0643 35.93 31.1398 35.9111ZM28.5517 41.0613C28.4241 41.0226 28.3165 40.9411 28.2288 40.8169C28.1577 40.6839 28.1454 40.5408 28.1919 40.3877C28.2384 40.2346 28.3262 40.1289 28.4554 40.0706C28.6012 40.0034 28.7379 39.9892 28.8655 40.0279L30.2051 40.4347C30.3582 40.4812 30.4639 40.569 30.5222 40.6982C30.5972 40.8185 30.6114 40.9552 30.5649 41.1083C30.5184 41.2614 30.4287 41.3735 30.2956 41.4445C30.1792 41.5067 30.0444 41.5146 29.8913 41.4681L28.5517 41.0613ZM28.155 43.5954C27.842 43.2495 27.6492 42.8287 27.5768 42.3329C27.539 42.1821 27.5631 42.057 27.649 41.9577C27.7387 41.8456 27.8507 41.7751 27.9849 41.7462C28.1357 41.7084 28.2672 41.7343 28.3793 41.8241C28.508 41.905 28.5849 42.0189 28.6099 42.1659C28.6511 42.4431 28.7628 42.6721 28.9448 42.8528C29.1268 43.0335 29.3709 43.1703 29.6771 43.2633L30.8828 43.6294C31.3676 43.7766 31.7959 44.0181 32.1677 44.354C32.5433 44.6771 32.8358 45.0446 33.0452 45.4565C33.2928 45.8801 33.4464 46.3378 33.5061 46.8297C33.5657 47.3215 33.52 47.8163 33.3689 48.3138L32.9041 49.8448C32.8692 49.9596 32.7769 50.057 32.6272 50.137C32.4942 50.2081 32.3575 50.2223 32.2171 50.1797C32.064 50.1332 31.9583 50.0453 31.9 49.9162C31.8456 49.7742 31.8358 49.6458 31.8706 49.531L32.3355 48C32.444 47.6428 32.4746 47.2898 32.4272 46.941C32.3798 46.5922 32.2762 46.2681 32.1163 45.9687C31.9602 45.6566 31.7485 45.3902 31.481 45.1697C31.2263 44.953 30.9204 44.7904 30.5631 44.6819L29.3575 44.3158C28.8472 44.1609 28.4463 43.9207 28.155 43.5954ZM29.7409 49.386C29.5851 49.3944 29.4511 49.3537 29.339 49.2639C29.2436 49.1653 29.1833 49.0425 29.1583 48.8955C29.146 48.7524 29.1847 48.6249 29.2745 48.5128C29.3809 48.3918 29.4993 48.3232 29.6296 48.3071C29.8148 48.2936 30.0028 48.2253 30.1935 48.1021C30.3548 47.9838 30.4664 47.8227 30.5284 47.6185C30.6059 47.3634 30.578 47.111 30.4447 46.8616C30.3115 46.6121 30.1173 46.4486 29.8621 46.3711C29.5687 46.282 29.3164 46.3099 29.1051 46.4548C28.8545 46.5459 28.6847 46.7382 28.5956 47.0316L27.66 50.1127C27.5786 50.3806 27.6046 50.6393 27.7378 50.8888C27.8839 51.1422 28.0781 51.3056 28.3205 51.3792L28.531 51.4432C28.6713 51.4858 28.8067 51.499 28.937 51.4828C29.0673 51.4667 29.1824 51.4319 29.2822 51.3786C29.5355 51.2326 29.7029 51.0256 29.7842 50.7577C29.8268 50.6174 29.9064 50.5161 30.0228 50.4539C30.1431 50.379 30.2798 50.3648 30.4329 50.4112C30.586 50.4577 30.6917 50.5456 30.75 50.6748C30.8249 50.795 30.8411 50.9254 30.7985 51.0657C30.7133 51.3464 30.5828 51.5924 30.4071 51.8038C30.2315 52.0153 30.0291 52.1768 29.8002 52.2884C29.5468 52.4344 29.2834 52.5217 29.01 52.5501C28.7405 52.5658 28.4782 52.5349 28.223 52.4574L28.0125 52.3935C27.4511 52.2231 27.0455 51.8839 26.7956 51.3761C26.5252 50.8899 26.4753 50.3661 26.6457 49.8047L27.5871 46.7045C27.6723 46.4238 27.8008 46.1841 27.9726 45.9855C28.1444 45.7868 28.3506 45.6126 28.5912 45.4627C28.833 45.3549 29.0842 45.2849 29.3448 45.2526C29.6093 45.2075 29.8755 45.2256 30.1434 45.3069C30.4241 45.3922 30.6619 45.5271 30.8566 45.7116C31.068 45.8873 31.2404 46.0999 31.3736 46.3494C31.6363 46.8611 31.6863 47.3849 31.5236 47.9207C31.4616 48.1248 31.3696 48.3129 31.2477 48.4849C31.1258 48.6569 30.9925 48.7976 30.8479 48.9069C30.5097 49.1944 30.1408 49.3541 29.7409 49.386Z" fill="#272727"/>
<g filter="url(#filter1_d)">
<path d="M23.6338 17.4443C22.5869 23.178 24.0952 28.888 30.9842 31.1661C37.8731 33.4442 42.4883 29.7592 45.0661 24.5318" stroke="black" stroke-width="1.5"/>
</g>
<g filter="url(#filter2_d)">
<circle cx="18.1513" cy="32.1892" r="9.13736" transform="rotate(-16.2291 18.1513 32.1892)" fill="#D8B166" stroke="black" stroke-width="1.2"/>
<path opacity="0.2" fill-rule="evenodd" clip-rule="evenodd" d="M13.8284 33.9305C14.0743 33.8589 14.2187 33.6121 14.1509 33.3791C14.0831 33.1462 13.8288 33.0154 13.5829 33.087C13.337 33.1585 13.1927 33.4054 13.2605 33.6383C13.3283 33.8713 13.5826 34.0021 13.8284 33.9305Z" fill="black"/>
<path opacity="0.2" fill-rule="evenodd" clip-rule="evenodd" d="M22.7322 31.3387C22.9781 31.2671 23.1225 31.0203 23.0547 30.7874C22.9869 30.5544 22.7326 30.4236 22.4867 30.4952C22.2408 30.5667 22.0965 30.8136 22.1643 31.0465C22.2321 31.2795 22.4864 31.4103 22.7322 31.3387Z" fill="black"/>
<path fill-rule="evenodd" clip-rule="evenodd" d="M14.0874 32.3302C14.4562 32.2229 14.6728 31.8526 14.571 31.5032C14.4693 31.1538 14.0879 30.9575 13.7191 31.0649C13.3503 31.1722 13.1337 31.5425 13.2354 31.8919C13.3371 32.2413 13.7186 32.4376 14.0874 32.3302Z" fill="black"/>
<path fill-rule="evenodd" clip-rule="evenodd" d="M21.8042 30.0841C22.173 29.9768 22.3895 29.6065 22.2878 29.2571C22.1861 28.9077 21.8047 28.7114 21.4359 28.8188C21.0671 28.9262 20.8505 29.2964 20.9522 29.6458C21.0539 29.9953 21.4354 30.1915 21.8042 30.0841Z" fill="black"/>
<path fill-rule="evenodd" clip-rule="evenodd" d="M19.0994 35.4465C19.919 35.2079 20.4002 34.3851 20.1742 33.6086C19.9481 32.8322 19.1005 32.3961 18.2809 32.6347C17.4613 32.8733 16.9801 33.6961 17.2061 34.4726C17.4321 35.249 18.2798 35.6851 19.0994 35.4465Z" fill="black"/>
<path fill-rule="evenodd" clip-rule="evenodd" d="M18.2196 34.6353C18.4654 34.5638 18.6098 34.3169 18.542 34.084C18.4742 33.851 18.2199 33.7202 17.974 33.7918C17.7281 33.8634 17.5838 34.1102 17.6516 34.3432C17.7194 34.5761 17.9737 34.7069 18.2196 34.6353Z" fill="#D8B166"/>
<path fill-rule="evenodd" clip-rule="evenodd" d="M19.4066 34.2896C19.6524 34.2181 19.7968 33.9712 19.729 33.7383C19.6612 33.5053 19.4069 33.3745 19.161 33.4461C18.9151 33.5177 18.7708 33.7645 18.8386 33.9975C18.9064 34.2304 19.1607 34.3612 19.4066 34.2896Z" fill="#D8B166"/>
<path d="M20.2158 22.2287C20.1746 22.2823 20.1129 22.4361 20.1358 22.7617C20.1576 23.0711 20.2508 23.4521 20.4055 23.8592C20.7166 24.6783 21.2225 25.4668 21.6707 25.8636C22.6281 26.5951 23.8597 27.1212 24.9271 27.3563C25.4637 27.4746 25.93 27.5128 26.2802 27.4812C26.6568 27.4472 26.774 27.346 26.791 27.3239C26.856 27.2393 26.9518 27.0011 26.9825 26.5733C27.0115 26.1685 26.9766 25.6682 26.8598 25.1371C26.6241 24.0649 26.078 22.963 25.1875 22.2786C24.302 21.5979 23.1846 21.4041 22.1822 21.4968C21.6838 21.5428 21.2325 21.6585 20.8769 21.8059C20.5066 21.9595 20.2965 22.1237 20.2158 22.2287Z" fill="#D8B166" stroke="black" stroke-width="1.2"/>
<path d="M10.5692 25.0365C10.6327 25.0597 10.7674 25.1563 10.9228 25.4434C11.0705 25.7161 11.1963 26.0876 11.2843 26.5141C11.4613 27.3722 11.4577 28.309 11.2924 28.8845C10.8772 30.0155 10.1203 31.1204 9.34587 31.8917C8.95654 32.2794 8.58355 32.5619 8.27114 32.7232C7.93507 32.8966 7.78192 32.8741 7.75576 32.8646C7.65551 32.8281 7.44681 32.6786 7.19129 32.334C6.94952 32.008 6.71055 31.5672 6.52405 31.0564C6.14752 30.0252 6.01695 28.8023 6.40095 27.7469C6.78283 26.6973 7.6217 25.9341 8.51724 25.4743C8.96243 25.2457 9.40535 25.101 9.78451 25.0346C10.1794 24.9654 10.4448 24.9913 10.5692 25.0365Z" fill="#D8B166" stroke="black" stroke-width="1.2"/>
</g>
<defs>
<filter id="filter0_d" x="8.18213" y="16.4968" width="41.8301" height="48.746" filterUnits="userSpaceOnUse" color-interpolation-filters="sRGB">
<feFlood flood-opacity="0" result="BackgroundImageFix"/>
<feColorMatrix in="SourceAlpha" type="matrix" values="0 0 0 0 0 0 0 0 0 0 0 0 0 0 0 0 0 0 127 0"/>
<feOffset dy="4"/>
<feGaussianBlur stdDeviation="2"/>
<feColorMatrix type="matrix" values="0 0 0 0 0 0 0 0 0 0 0 0 0 0 0 0 0 0 0.25 0"/>
<feBlend mode="normal" in2="BackgroundImageFix" result="effect1_dropShadow"/>
<feBlend mode="normal" in="SourceGraphic" in2="effect1_dropShadow" result="shape"/>
</filter>
<filter id="filter1_d" x="15.3271" y="17.1125" width="34.4766" height="26.5425" filterUnits="userSpaceOnUse" color-interpolation-filters="sRGB">
<feFlood flood-opacity="0" result="BackgroundImageFix"/>
<feColorMatrix in="SourceAlpha" type="matrix" values="0 0 0 0 0 0 0 0 0 0 0 0 0 0 0 0 0 0 127 0"/>
<feOffset dy="4"/>
<feGaussianBlur stdDeviation="2"/>
<feColorMatrix type="matrix" values="0 0 0 0 0 0 0 0 0 0 0 0 0 0 0 0 0 0 0.25 0"/>
<feBlend mode="normal" in2="BackgroundImageFix" result="effect1_dropShadow"/>
<feBlend mode="normal" in="SourceGraphic" in2="effect1_dropShadow" result="shape"/>
</filter>
<filter id="filter2_d" x="0.145996" y="19.0164" width="34.076" height="33.2435" filterUnits="userSpaceOnUse" color-interpolation-filters="sRGB">
<feFlood flood-opacity="0" result="BackgroundImageFix"/>
<feColorMatrix in="SourceAlpha" type="matrix" values="0 0 0 0 0 0 0 0 0 0 0 0 0 0 0 0 0 0 127 0"/>
<feOffset dy="4"/>
<feGaussianBlur stdDeviation="2"/>
<feColorMatrix type="matrix" values="0 0 0 0 0 0 0 0 0 0 0 0 0 0 0 0 0 0 0.25 0"/>
<feBlend mode="normal" in2="BackgroundImageFix" result="effect1_dropShadow"/>
<feBlend mode="normal" in="SourceGraphic" in2="effect1_dropShadow" result="shape"/>
</filter>
</defs>
</svg>
