<svg version="1.1"
      xmlns="http://www.w3.org/2000/svg"
      xmlns:xlink="http://www.w3.org/1999/xlink"  id="snapshot-56242" width="250" height="250" viewBox="0 0 250 250"><desc>This image was made on Patterninja.com</desc><defs>
<!-- image 09299 -->
<g id="transformed-09299" data-image="09299" transform="translate(172.97370240955956, 199.8550671180094) rotate(356, 19.026297590440446, 15.144932881990592)"><g><svg version="1.1" width="38.05259518088089px" height="30.289865763981183px" viewBox="0 0 38.05259518088089 30.289865763981183"><g id="original-09299"><svg xmlns="http://www.w3.org/2000/svg" fill="none" viewBox="0 0 54 43" xmlns:xlink="http://www.w3.org/1999/xlink" version="1.1" preserveAspectRatio="xMidYMid meet">
  <path stroke-width="10" d="M5 38c9.765-9.09 20.485-16.494 31.273-24.047C39.72 11.54 44.18 7.371 48 6" stroke-linecap="round" stroke-linejoin="round" fill="rgba(0, 0, 0, 1)" stroke="rgba(244, 85, 64, 1)"/>
</svg>
</g></svg></g></g>
<!-- /image 09299 -->

<!-- image 49707 -->
<g id="transformed-49707" data-image="49707" transform="translate(100.00000000000001, 96) rotate(0, 26.999999999999986, 27)"><g><svg version="1.1" width="53.99999999999997px" height="54px" viewBox="0 0 53.99999999999997 54"><g id="original-49707"><svg xmlns="http://www.w3.org/2000/svg" fill="none" viewBox="0 0 66 66" xmlns:xlink="http://www.w3.org/1999/xlink" version="1.1" preserveAspectRatio="xMidYMid meet">
  <path d="M0 33c0 18.244 14.756 33 33 33s33-14.756 33-33S51.19 0 33 0C14.756 0 0 14.756 0 33zm1.932 1.395v-2.844H31.55v-3.273H2.254l.375-1.717.215-1.127C5.527 14.81 13.737 6.278 24.254 3.166l1.073-.268 1.77-.43v17.386h-8.585V17.01h5.795V6.17C15.347 9.069 8.371 16.42 5.85 25.435h25.756V1.932h2.844v23.503h25.756c-2.522-9.07-9.551-16.367-18.459-19.264v10.785h5.795V19.8H38.85V2.468l1.77.43 1.074.268C52.21 6.224 60.42 14.81 63.103 25.434l.214 1.127.376 1.717H34.395v3.273H64.015v2.844H34.395v3.273h29.298l-.376 1.717-.215 1.127C60.42 51.137 52.21 59.668 41.692 62.781l-1.072.268-1.771.43V46.145h8.639v2.844h-5.795v10.786c8.96-2.898 15.936-10.25 18.458-19.264H34.395v23.503h-2.844V40.566H5.795c2.522 9.068 9.551 16.366 18.459 19.263V48.99h-5.742v-2.844h8.64v17.386l-1.771-.43-1.074-.268C13.79 59.776 5.58 51.19 2.897 40.566l-.214-1.127-.376-1.717h29.298v-3.273H1.932v-.054z" fill="rgba(244, 85, 64, 1)" stroke="none"/>
</svg>
</g></svg></g></g>
<!-- /image 49707 -->

<!-- image 53883 -->
<g id="transformed-53883" data-image="53883" transform="translate(28.03468780672629, 159.95240791674271) rotate(357, 32.96531219327371, 42.04759208325728)"><g><svg version="1.1" width="65.93062438654742px" height="84.09518416651456px" viewBox="0 0 65.93062438654742 84.09518416651456"><g id="original-53883"><svg xmlns="http://www.w3.org/2000/svg" fill="none" viewBox="0 0 236 301" xmlns:xlink="http://www.w3.org/1999/xlink" version="1.1" preserveAspectRatio="xMidYMid meet">
  <path stroke-width="20" d="M222.827 243.283c-24.082 7.081-45.194-1.711-67.481-10.701-20.92-8.438-42.454-21.671-60.032-35.782-10.348-8.306-19.141-18.528-28.065-28.297-12.514-13.7-22.508-27.764-31.016-44.262C26.673 105.705 19.26 87.169 13 67.378" stroke-linecap="round" stroke-linejoin="round" fill="rgba(0, 0, 0, 0)" stroke="rgba(244, 85, 64, 1)"/>
  <path stroke-width="20" d="M210.305 193.753c-13.187 3.651-28.381 2.797-41.756.623-11.443-1.859-19.599-6.655-29.801-11.316-8.426-3.85-16.08-11.731-22.561-18.268-8.732-8.808-17.722-17.289-26.178-26.389C69.979 116.85 59.366 91.27 50.69 63.845" stroke-linecap="round" stroke-linejoin="round" fill="rgba(0, 0, 0, 0)" stroke="rgba(244, 85, 64, 1)"/>
  <path stroke-width="20" d="M200.897 147.434c-17.559 2.59-37.687-.836-52.654-10.614-13.977-9.131-24.268-24.151-36.387-35.453-17.341-16.171-22.05-43.18-28.808-64.54" stroke-linecap="round" stroke-linejoin="round" fill="rgba(0, 0, 0, 0)" stroke="rgba(244, 85, 64, 1)"/>
</svg>
</g></svg></g></g>
<!-- /image 53883 -->

<!-- image 56429 -->
<g id="transformed-56429" data-image="56429" transform="translate(79, 22.000000000000004) rotate(0, 16, 15.999999999999996)"><g><svg version="1.1" width="32px" height="31.999999999999993px" viewBox="0 0 32 31.999999999999993"><g id="original-56429"><svg xmlns="http://www.w3.org/2000/svg" fill="none" viewBox="0 0 35 35" xmlns:xlink="http://www.w3.org/1999/xlink" version="1.1" preserveAspectRatio="xMidYMid meet">
  <path stroke-width="10" d="M20.268 9.741c19.122 4.085-7.789 30.211-12.412 9.536C6.433 12.91 10.966 6.09 18.511 8.554c5.013 1.637 6.2 3.088 7.207 8.28" stroke-linecap="round" stroke-linejoin="round" fill="rgba(0, 0, 0, 0)" stroke="rgba(244, 144, 103, 1)"/>
</svg>
</g></svg></g></g>
<!-- /image 56429 -->

<!-- image 46381 -->
<g id="transformed-46381" data-image="46381" transform="translate(191.86790366824798, 52.19975965038965) rotate(354, 34.132096331752024, 22.800240349610345)"><g><svg version="1.1" width="68.26419266350405px" height="45.60048069922069px" viewBox="0 0 68.26419266350405 45.60048069922069"><g id="original-46381"><svg xmlns="http://www.w3.org/2000/svg" fill="none" viewBox="0 0 247 165" xmlns:xlink="http://www.w3.org/1999/xlink" version="1.1" preserveAspectRatio="xMidYMid meet">
  <path stroke-width="20" d="M10 147c.486-23.389 14.47-39.677 28.968-56.954 13.61-16.217 31.729-31.632 49.51-43.285 10.467-6.86 22.221-11.8 33.603-16.983 15.961-7.268 31.532-12.195 48.877-15.118C190.446 11.376 209.32 10 229 10" stroke-linecap="round" stroke-linejoin="round" fill="rgba(0, 0, 0, 0)" stroke="rgba(216, 177, 102, 1)"/>
  <path stroke-width="20" d="M58 149c.474-12.707 5.62-25.928 11.442-37.168 4.98-9.616 11.686-15.498 18.858-23.23 5.923-6.386 15.289-10.958 23.095-14.868 10.519-5.267 20.814-10.855 31.518-15.796C168.267 46.234 194.574 44 222 44" stroke-linecap="round" stroke-linejoin="round" fill="rgba(0, 0, 0, 0)" stroke="rgba(216, 177, 102, 1)"/>
  <path stroke-width="20" d="M103 154c2.686-16.301 11.56-33.193 24.709-43.725 12.28-9.835 28.84-14.748 42.555-22.327 19.623-10.844 45.446-7.442 66.736-7.442" stroke-linecap="round" stroke-linejoin="round" fill="rgba(0, 0, 0, 0)" stroke="rgba(216, 177, 102, 1)"/>
</svg>
</g></svg></g></g>
<!-- /image 46381 -->
</defs><rect x="0" y="0" width="250" height="250" fill="rgba(255, 255, 255, 0)"></rect><use xlink:href="#transformed-09299" transform="translate(-250, -250)"></use><use xlink:href="#transformed-09299" transform="translate(0, -250)"></use><use xlink:href="#transformed-09299" transform="translate(250, -250)"></use><use xlink:href="#transformed-09299" transform="translate(-250, 0)"></use><use xlink:href="#transformed-09299" transform="translate(0, 0)"></use><use xlink:href="#transformed-09299" transform="translate(250, 0)"></use><use xlink:href="#transformed-09299" transform="translate(-250, 250)"></use><use xlink:href="#transformed-09299" transform="translate(0, 250)"></use><use xlink:href="#transformed-09299" transform="translate(250, 250)"></use><use xlink:href="#transformed-49707" transform="translate(-250, -250)"></use><use xlink:href="#transformed-49707" transform="translate(0, -250)"></use><use xlink:href="#transformed-49707" transform="translate(250, -250)"></use><use xlink:href="#transformed-49707" transform="translate(-250, 0)"></use><use xlink:href="#transformed-49707" transform="translate(0, 0)"></use><use xlink:href="#transformed-49707" transform="translate(250, 0)"></use><use xlink:href="#transformed-49707" transform="translate(-250, 250)"></use><use xlink:href="#transformed-49707" transform="translate(0, 250)"></use><use xlink:href="#transformed-49707" transform="translate(250, 250)"></use><use xlink:href="#transformed-53883" transform="translate(-250, -250)"></use><use xlink:href="#transformed-53883" transform="translate(0, -250)"></use><use xlink:href="#transformed-53883" transform="translate(250, -250)"></use><use xlink:href="#transformed-53883" transform="translate(-250, 0)"></use><use xlink:href="#transformed-53883" transform="translate(0, 0)"></use><use xlink:href="#transformed-53883" transform="translate(250, 0)"></use><use xlink:href="#transformed-53883" transform="translate(-250, 250)"></use><use xlink:href="#transformed-53883" transform="translate(0, 250)"></use><use xlink:href="#transformed-53883" transform="translate(250, 250)"></use><use xlink:href="#transformed-56429" transform="translate(-250, -250)"></use><use xlink:href="#transformed-56429" transform="translate(0, -250)"></use><use xlink:href="#transformed-56429" transform="translate(250, -250)"></use><use xlink:href="#transformed-56429" transform="translate(-250, 0)"></use><use xlink:href="#transformed-56429" transform="translate(0, 0)"></use><use xlink:href="#transformed-56429" transform="translate(250, 0)"></use><use xlink:href="#transformed-56429" transform="translate(-250, 250)"></use><use xlink:href="#transformed-56429" transform="translate(0, 250)"></use><use xlink:href="#transformed-56429" transform="translate(250, 250)"></use><use xlink:href="#transformed-46381" transform="translate(-250, -250)"></use><use xlink:href="#transformed-46381" transform="translate(0, -250)"></use><use xlink:href="#transformed-46381" transform="translate(250, -250)"></use><use xlink:href="#transformed-46381" transform="translate(-250, 0)"></use><use xlink:href="#transformed-46381" transform="translate(0, 0)"></use><use xlink:href="#transformed-46381" transform="translate(250, 0)"></use><use xlink:href="#transformed-46381" transform="translate(-250, 250)"></use><use xlink:href="#transformed-46381" transform="translate(0, 250)"></use><use xlink:href="#transformed-46381" transform="translate(250, 250)"></use></svg>