<svg version="1.1"
      xmlns="http://www.w3.org/2000/svg"
      xmlns:xlink="http://www.w3.org/1999/xlink"  id="snapshot-68621" width="250" height="250" viewBox="0 0 250 250"><desc>This image was made on Patterninja.com</desc><defs>
<!-- image 68437 -->
<g id="transformed-68437" data-image="68437" transform="translate(-14, -13.999999999999996) rotate(0, 14, 13.999999999999996)"><g><svg version="1.1" width="28px" height="27.999999999999993px" viewBox="0 0 28 27.999999999999993"><g id="original-68437"><svg xmlns="http://www.w3.org/2000/svg" fill="none" viewBox="0 0 66 66" xmlns:xlink="http://www.w3.org/1999/xlink" version="1.1" preserveAspectRatio="xMidYMid meet">
  <path d="M0 33c0 18.244 14.756 33 33 33s33-14.756 33-33S51.19 0 33 0C14.756 0 0 14.756 0 33zm1.932 1.395v-2.844H31.55v-3.273H2.254l.375-1.717.215-1.127C5.527 14.81 13.737 6.278 24.254 3.166l1.073-.268 1.77-.43v17.386h-8.585V17.01h5.795V6.17C15.347 9.069 8.371 16.42 5.85 25.435h25.756V1.932h2.844v23.503h25.756c-2.522-9.07-9.551-16.367-18.459-19.264v10.785h5.795V19.8H38.85V2.468l1.77.43 1.074.268C52.21 6.224 60.42 14.81 63.103 25.434l.214 1.127.376 1.717H34.395v3.273H64.015v2.844H34.395v3.273h29.298l-.376 1.717-.215 1.127C60.42 51.137 52.21 59.668 41.692 62.781l-1.072.268-1.771.43V46.145h8.639v2.844h-5.795v10.786c8.96-2.898 15.936-10.25 18.458-19.264H34.395v23.503h-2.844V40.566H5.795c2.522 9.068 9.551 16.366 18.459 19.263V48.99h-5.742v-2.844h8.64v17.386l-1.771-.43-1.074-.268C13.79 59.776 5.58 51.19 2.897 40.566l-.214-1.127-.376-1.717h29.298v-3.273H1.932v-.054z" fill="rgba(244, 85, 64, 1)" stroke="none"/>
</svg>
</g></svg></g></g>
<!-- /image 68437 -->

<!-- image 10130 -->
<g id="transformed-10130" data-image="10130" transform="translate(115.9706136340736, 106.44460845272258) rotate(356, 17.029386365926403, 13.555391547277424)"><g><svg version="1.1" width="34.058772731852805px" height="27.110783094554847px" viewBox="0 0 34.058772731852805 27.110783094554847"><g id="original-10130"><svg xmlns="http://www.w3.org/2000/svg" fill="none" viewBox="0 0 54 43" xmlns:xlink="http://www.w3.org/1999/xlink" version="1.1" preserveAspectRatio="xMidYMid meet">
  <path stroke-width="10" d="M5 38c9.765-9.09 20.485-16.494 31.273-24.047C39.72 11.54 44.18 7.371 48 6" stroke-linecap="round" stroke-linejoin="round" fill="rgba(0, 0, 0, 1)" stroke="rgba(244, 85, 64, 1)"/>
</svg>
</g></svg></g></g>
<!-- /image 10130 -->
</defs><rect x="0" y="0" width="250" height="250" fill="rgba(255, 255, 255, 0)"></rect><use xlink:href="#transformed-68437" transform="translate(-250, -250)"></use><use xlink:href="#transformed-68437" transform="translate(0, -250)"></use><use xlink:href="#transformed-68437" transform="translate(250, -250)"></use><use xlink:href="#transformed-68437" transform="translate(-250, 0)"></use><use xlink:href="#transformed-68437" transform="translate(0, 0)"></use><use xlink:href="#transformed-68437" transform="translate(250, 0)"></use><use xlink:href="#transformed-68437" transform="translate(-250, 250)"></use><use xlink:href="#transformed-68437" transform="translate(0, 250)"></use><use xlink:href="#transformed-68437" transform="translate(250, 250)"></use><use xlink:href="#transformed-10130" transform="translate(-250, -250)"></use><use xlink:href="#transformed-10130" transform="translate(0, -250)"></use><use xlink:href="#transformed-10130" transform="translate(250, -250)"></use><use xlink:href="#transformed-10130" transform="translate(-250, 0)"></use><use xlink:href="#transformed-10130" transform="translate(0, 0)"></use><use xlink:href="#transformed-10130" transform="translate(250, 0)"></use><use xlink:href="#transformed-10130" transform="translate(-250, 250)"></use><use xlink:href="#transformed-10130" transform="translate(0, 250)"></use><use xlink:href="#transformed-10130" transform="translate(250, 250)"></use></svg>