<svg width="109" height="61" viewBox="0 0 109 61" fill="none" xmlns="http://www.w3.org/2000/svg">
<path d="M69.3622 3H40.1638C36.7596 3 34 5.75962 34 9.16379V51.8362C34 55.2404 36.7596 58 40.1638 58H69.3622C72.7663 58 75.5259 55.2404 75.5259 51.8362V9.16379C75.5259 5.75962 72.7663 3 69.3622 3Z" fill="#FD4F4F" stroke="#414141" stroke-width="3"/>
<path d="M34.5427 6.31898C35.9869 16.0206 41.7641 24.3362 54.7626 24.3362C67.7611 24.3362 73.5382 16.0206 74.9825 6.319" stroke="#414141" stroke-width="3"/>
<path opacity="0.6" d="M54.6612 20.2831L46.8017 23.8575L54.6612 28.5009L62.5176 23.8575L54.6612 20.2831Z" fill="white"/>
<path d="M46.8017 23.8574L54.6612 28.5008V10.817L46.8017 23.8574Z" fill="white"/>
<path d="M54.6629 10.817V28.5008L62.5193 23.8574L54.6629 10.817Z" fill="white"/>
<path d="M46.8017 25.3468L54.6612 36.4192V29.9901L46.8017 25.3468Z" fill="white"/>
<path d="M54.6629 29.9901V36.4192L62.5256 25.3468L54.6629 29.9901Z" fill="white"/>
</svg>
