<svg width="31" height="31" viewBox="0 0 31 31" fill="none" xmlns="http://www.w3.org/2000/svg">
<circle cx="15.5" cy="15.5" r="15.5" fill="#414141"/>
<path d="M11.7707 22.8726C11.2243 22.8726 11.2739 22.6739 11.1249 22.1771L9.53516 16.9607L21.7067 9.80688" fill="#C8DAEA"/>
<path d="M11.771 22.8724C12.1188 22.8724 12.3175 22.6737 12.5659 22.475L14.8015 20.3388L12.0194 18.6497" fill="#A9C9DD"/>
<path d="M12.0192 18.6498L18.726 23.5681C19.4215 24.0152 20.0176 23.7668 20.2163 22.8726L22.9487 10.0553C23.1971 8.96232 22.5016 8.46552 21.7564 8.81328L5.80926 14.9736C4.76599 15.371 4.76599 16.0168 5.61054 16.2652L9.73395 17.5569L19.1731 11.5457C19.6202 11.2973 20.0176 11.3966 19.7195 11.7444" fill="#F6FBFE"/>
</svg>
